<?xml version="1.0" encoding="utf-8"?>
<!-- Generator: Adobe Illustrator 19.0.0, SVG Export Plug-In . SVG Version: 6.00 Build 0)  -->
<svg version="1.1" id="layer" xmlns="http://www.w3.org/2000/svg" xmlns:xlink="http://www.w3.org/1999/xlink" x="0px" y="0px"
	 viewBox="-153 -46 652 652" style="enable-background:new -153 -46 652 652;" xml:space="preserve">
<style type="text/css">
	.st0{fill:#478BCA;}
</style>
<g>
	<g>
		<path class="st0" d="M-111.5,346h-2c-0.4,0-0.6,0.2-0.6,0.6v10.5c0,0.7-0.1,1.3-0.2,1.8c-0.1,0.5-0.4,0.9-1,1.3
			c-0.4,0.3-0.8,0.5-1.3,0.6c-0.9,0.2-2,0.2-2.9,0c-0.4-0.1-0.8-0.3-1.2-0.7c-0.3-0.2-0.4-0.4-0.6-0.6c-0.1-0.2-0.2-0.5-0.3-0.7
			c-0.1-0.2-0.1-0.5-0.1-0.8c0-0.3,0-0.6,0-0.9v-10.4c0-0.4-0.2-0.6-0.6-0.6h-2.7c-0.4,0-0.6,0.2-0.6,0.6v10.6c0,0.5,0,1.1,0.1,1.5
			c0,0.5,0.1,1,0.3,1.4c0.1,0.5,0.3,0.9,0.6,1.3c0.3,0.4,0.7,0.8,1.2,1.1c0.8,0.6,1.6,0.9,2.5,1.1c0.9,0.2,1.8,0.3,2.7,0.3
			c0.9,0,1.8-0.1,2.7-0.2c0.9-0.2,1.8-0.5,2.5-1.1c0.8-0.6,1.3-1.3,1.7-2c0.3-0.8,0.5-1.6,0.5-2.6v-11.4
			C-110.9,346.2-111.2,346-111.5,346"/>
		<path class="st0" d="M-100.2,350c-0.4,0-0.8,0-1.2,0.1c-0.4,0.1-0.8,0.2-1.1,0.3c-0.3,0.1-0.6,0.2-0.9,0.3
			c-0.2,0.1-0.3,0.1-0.5,0.1c0-0.1,0-0.1,0-0.2c-0.1-0.2-0.3-0.4-0.7-0.4h-2.1c-0.4,0-0.6,0.2-0.6,0.6V363c0,0.4,0.2,0.6,0.6,0.6
			h2.5c0.4,0,0.6-0.2,0.6-0.6v-8.3c0-0.7,0.2-1.1,0.7-1.3c0.5-0.3,1-0.4,1.7-0.4c0.9,0,1.5,0.2,1.8,0.6c0.4,0.4,0.5,1,0.5,1.8v7.7
			c0,0.4,0.2,0.6,0.6,0.6h2.5c0.4,0,0.6-0.2,0.6-0.6v-8.1c0-1.6-0.4-2.8-1.3-3.6C-97.4,350.4-98.6,350-100.2,350"/>
		<path class="st0" d="M-89.8,345.1c-0.6,0-1.2,0.1-1.6,0.4c-0.4,0.3-0.7,0.8-0.7,1.5c0,0.7,0.2,1.2,0.6,1.5
			c0.4,0.3,0.9,0.4,1.5,0.4c0.6,0,1.1-0.1,1.5-0.4c0.4-0.3,0.6-0.8,0.6-1.5c0-0.7-0.2-1.1-0.6-1.4
			C-88.7,345.3-89.2,345.1-89.8,345.1"/>
		<path class="st0" d="M-88.6,350.2h-2.5c-0.4,0-0.6,0.2-0.6,0.6V363c0,0.4,0.2,0.6,0.6,0.6h2.5c0.4,0,0.6-0.2,0.6-0.6v-12.1
			C-88,350.5-88.3,350.2-88.6,350.2"/>
		<path class="st0" d="M-76.9,350.2h-3.6v-2.8c0-0.4-0.2-0.6-0.6-0.6h-2.5c-0.4,0-0.6,0.2-0.6,0.6v2.8h-0.9c-0.4,0-0.6,0.2-0.6,0.6
			c0,0.5,0,0.8,0,1.1c0,0.3,0,0.5,0.2,0.7c0.1,0.2,0.4,0.2,0.7,0.2h0.8v7.1c0,0.5,0.1,1.1,0.2,1.5c0.1,0.5,0.5,1,0.9,1.4
			c0.5,0.4,1,0.6,1.6,0.7c0.6,0.1,1.1,0.2,1.7,0.2c0.4,0,0.9,0,1.5-0.1c0.6-0.1,1.1-0.2,1.5-0.4c0.2-0.1,0.3-0.2,0.4-0.3
			c0.1-0.1,0.2-0.3,0.2-0.6v-1.3c0-0.4-0.3-0.6-0.6-0.6c-0.2,0-0.4,0-0.5,0.1c-0.3,0.1-0.6,0.2-0.8,0.3c-0.2,0.1-0.5,0.1-0.8,0.1
			c-0.5,0-0.9-0.1-1.2-0.4c-0.2-0.3-0.4-0.7-0.4-1.2v-6.6h3.6c0.4,0,0.6-0.2,0.6-0.6v-1.4C-76.2,350.5-76.5,350.2-76.9,350.2"/>
		<path class="st0" d="M-70.2,352.9c0.3-0.1,0.7-0.2,1.1-0.2c0.9,0,1.6,0.2,2,0.7c0.4,0.4,0.6,1,0.7,1.7h-5.4v-0.1
			c0-0.4,0.1-0.7,0.2-1c0.1-0.3,0.3-0.5,0.6-0.7C-70.8,353.2-70.5,353-70.2,352.9 M-69,350c-1.1,0-2,0.2-2.9,0.5
			c-0.8,0.3-1.5,0.8-2.1,1.4c-0.5,0.6-1,1.4-1.2,2.2c-0.3,0.8-0.4,1.8-0.4,2.8c0,2.2,0.6,3.9,1.8,5.1c1.2,1.2,2.9,1.8,5.2,1.8
			c0.7,0,1.5-0.1,2.3-0.2c0.8-0.1,1.5-0.3,2.2-0.7c0.3-0.1,0.5-0.2,0.6-0.4c0.1-0.1,0.1-0.3,0.1-0.7v-1.2c0-0.1,0-0.2,0-0.4
			c-0.1-0.4-0.5-0.5-1-0.3c-0.3,0.2-0.7,0.3-1,0.5c-0.3,0.1-0.7,0.3-1.1,0.3c-0.5,0.1-1,0.2-1.5,0.2c-1.1,0-2-0.3-2.7-1
			c-0.6-0.6-0.9-1.3-1-2.3h8.5c0.4,0,0.6-0.2,0.6-0.6v-1c0-2-0.6-3.5-1.7-4.6C-65.4,350.6-67,350-69,350"/>
		<path class="st0" d="M-51.7,354.4v5.2c0,0.3-0.1,0.5-0.2,0.7c-0.1,0.2-0.3,0.3-0.5,0.5c-0.2,0.1-0.5,0.2-0.8,0.3
			c-1,0.2-1.9,0.1-2.5-0.3c-0.4-0.2-0.8-0.5-1-0.9c-0.3-0.4-0.4-0.8-0.6-1.3c-0.1-0.5-0.2-1-0.2-1.6c0-0.6,0.1-1.1,0.2-1.7
			c0.1-0.5,0.3-1,0.6-1.4c0.3-0.4,0.6-0.7,1-0.9c0.4-0.2,1-0.3,1.6-0.3c0.3,0,0.6,0,1,0.1c0.3,0.1,0.6,0.2,0.9,0.4
			c0.2,0.2,0.4,0.3,0.4,0.5C-51.8,353.8-51.7,354.1-51.7,354.4 M-48.6,345.1h-2.5c-0.4,0-0.6,0.2-0.6,0.6v5c-0.1,0-0.1-0.1-0.2-0.1
			c-0.5-0.3-0.9-0.4-1.3-0.5c-0.4-0.1-0.9-0.2-1.4-0.2c-1,0-2,0.2-2.8,0.6c-0.8,0.4-1.5,0.9-2.1,1.5c-0.6,0.6-1,1.4-1.3,2.2
			c-0.3,0.8-0.4,1.7-0.4,2.7c0,0.9,0.1,1.8,0.4,2.7c0.3,0.8,0.7,1.5,1.3,2.2c0.6,0.6,1.2,1.1,2,1.4c0.8,0.3,1.7,0.5,2.7,0.5
			c0.6,0,1.1-0.1,1.6-0.2c0.5-0.1,1-0.3,1.5-0.6c0.1,0,0.1,0,0.1-0.1c0,0.1,0,0.1,0,0.2c0,0.1,0.1,0.5,0.7,0.5h2.1
			c0.4,0,0.6-0.2,0.6-0.6v-17.3C-48,345.4-48.2,345.1-48.6,345.1"/>
		<path class="st0" d="M-23.1,346h-1.9c-0.4,0-0.6,0.2-0.6,0.6v11.3l-7.2-11.3c-0.1-0.2-0.3-0.4-0.5-0.5c-0.2-0.1-0.4-0.2-0.7-0.2
			h-2.9c-0.4,0-0.6,0.2-0.6,0.6V363c0,0.4,0.2,0.6,0.6,0.6h1.9c0.4,0,0.6-0.2,0.6-0.6v-11.8l7.4,11.8c0.1,0.2,0.3,0.4,0.4,0.5
			c0.2,0.1,0.4,0.2,0.7,0.2h2.7c0.4,0,0.6-0.2,0.6-0.6v-16.4C-22.5,346.2-22.7,346-23.1,346"/>
		<path class="st0" d="M-11.9,357v2.5c0,0.3,0,0.5-0.1,0.7c0,0.2-0.2,0.3-0.4,0.5c-0.2,0.2-0.5,0.3-0.7,0.3c-0.6,0.1-1.1,0.1-1.7,0
			c-0.3-0.1-0.5-0.2-0.7-0.3c-0.2-0.1-0.3-0.3-0.4-0.5c-0.1-0.2-0.2-0.4-0.2-0.7c0-0.3,0.1-0.5,0.2-0.7c0.2-0.2,0.4-0.4,0.6-0.6
			c0.3-0.2,0.5-0.3,0.8-0.4c0.3-0.1,0.6-0.2,0.9-0.3L-11.9,357z M-9.9,350.8c-0.5-0.3-1.1-0.5-1.7-0.6c-1.4-0.2-2.8-0.2-4.3,0
			c-0.8,0.1-1.7,0.3-2.4,0.7c-0.2,0.1-0.4,0.2-0.5,0.3c-0.1,0.1-0.2,0.3-0.2,0.6v1.4c0,0.1,0,0.2,0.1,0.4c0.1,0.3,0.5,0.4,0.9,0.3
			c0.1,0,0.1-0.1,0.2-0.1c0.7-0.3,1.3-0.6,2-0.7c0.6-0.2,1.3-0.3,2.1-0.3c0.2,0,0.4,0,0.7,0.1c0.2,0,0.5,0.1,0.7,0.2
			c0.2,0.1,0.3,0.2,0.4,0.3c0.1,0.1,0.2,0.3,0.2,0.5c0,0.2,0,0.3-0.1,0.4c-0.2,0.1-0.4,0.2-0.7,0.3l-2.7,0.9
			c-0.6,0.2-1.1,0.4-1.6,0.6c-0.5,0.2-1,0.5-1.4,0.8c-0.4,0.3-0.7,0.8-1,1.2c-0.2,0.5-0.4,1.1-0.4,1.8c0,0.7,0.1,1.2,0.4,1.7
			c0.2,0.5,0.6,0.9,1,1.3c0.4,0.3,0.9,0.6,1.4,0.8c0.5,0.2,1.1,0.2,1.8,0.2c0.5,0,0.9,0,1.3-0.1c0.4-0.1,0.8-0.2,1.2-0.4
			c0.2-0.1,0.4-0.2,0.6-0.3c0.1-0.1,0.3-0.1,0.5-0.1c0,0.1,0,0.1,0,0.2c0,0.1,0.1,0.5,0.6,0.5h2.2c0.4,0,0.6-0.2,0.6-0.6v-9.1
			c0-0.8-0.2-1.4-0.5-1.9C-9,351.5-9.4,351.1-9.9,350.8"/>
		<path class="st0" d="M2.7,350.2h-3.6v-2.8c0-0.4-0.2-0.6-0.6-0.6H-4c-0.4,0-0.6,0.2-0.6,0.6v2.8h-0.9c-0.4,0-0.6,0.2-0.6,0.6
			c0,0.5,0,0.8,0,1.1c0,0.3,0,0.5,0.2,0.7c0.1,0.2,0.4,0.2,0.7,0.2h0.8v7.1c0,0.5,0.1,1.1,0.2,1.5c0.1,0.5,0.5,1,0.9,1.4
			c0.5,0.4,1,0.6,1.6,0.7c0.6,0.1,1.1,0.2,1.7,0.2c0.4,0,0.9,0,1.5-0.1c0.6-0.1,1.1-0.2,1.5-0.4c0.2-0.1,0.3-0.2,0.4-0.3
			c0.1-0.1,0.2-0.3,0.2-0.6v-1.3c0-0.4-0.3-0.6-0.6-0.6c-0.2,0-0.4,0-0.5,0.1c-0.3,0.1-0.6,0.2-0.8,0.3c-0.2,0.1-0.5,0.1-0.8,0.1
			c-0.5,0-0.9-0.1-1.2-0.4c-0.2-0.3-0.4-0.7-0.4-1.2v-6.6h3.6c0.4,0,0.6-0.2,0.6-0.6v-1.4C3.3,350.5,3.1,350.2,2.7,350.2"/>
		<path class="st0" d="M7.2,345.1c-0.6,0-1.2,0.1-1.6,0.4C5.2,345.8,5,346.3,5,347c0,0.7,0.2,1.2,0.6,1.5c0.4,0.3,0.9,0.4,1.5,0.4
			c0.6,0,1.1-0.1,1.5-0.4c0.4-0.3,0.6-0.8,0.6-1.5c0-0.7-0.2-1.1-0.6-1.4C8.3,345.3,7.8,345.1,7.2,345.1"/>
		<path class="st0" d="M8.4,350.2H5.9c-0.4,0-0.6,0.2-0.6,0.6V363c0,0.4,0.2,0.6,0.6,0.6h2.5c0.4,0,0.6-0.2,0.6-0.6v-12.1
			C9,350.5,8.7,350.2,8.4,350.2"/>
		<path class="st0" d="M18.5,361.3c-0.6,0-1.1-0.1-1.4-0.4c-0.4-0.3-0.7-0.6-0.9-1c-0.2-0.4-0.4-0.9-0.5-1.4
			c-0.1-0.5-0.2-1.1-0.2-1.6c0-0.5,0.1-1,0.2-1.5c0.1-0.5,0.3-1,0.5-1.4c0.2-0.4,0.5-0.7,0.9-1c0.4-0.2,0.8-0.4,1.4-0.4
			c0.6,0,1,0.1,1.4,0.4c0.4,0.3,0.7,0.6,0.9,1c0.2,0.4,0.4,0.9,0.5,1.4c0.1,0.5,0.1,1,0.1,1.5c0,0.5,0,1-0.1,1.5
			c-0.1,0.5-0.3,1-0.5,1.4c-0.2,0.4-0.5,0.7-0.9,1C19.5,361.2,19.1,361.3,18.5,361.3 M23.6,352c-0.5-0.6-1.2-1.1-2.1-1.5
			c-0.8-0.3-1.8-0.5-2.9-0.5c-0.9,0-1.7,0.1-2.5,0.3c-0.8,0.2-1.5,0.6-2.2,1.2c-0.8,0.7-1.4,1.6-1.7,2.6c-0.3,0.9-0.4,2-0.4,3
			c0,1,0.2,2,0.4,3c0.3,1,0.9,1.8,1.7,2.6c0.7,0.6,1.4,1,2.2,1.2c0.7,0.2,1.5,0.3,2.4,0.3c0.9,0,1.7-0.1,2.4-0.3
			c0.8-0.2,1.5-0.6,2.2-1.2c0.8-0.7,1.4-1.6,1.7-2.6c0.3-0.9,0.4-1.9,0.4-3c0-1-0.1-2-0.4-2.8C24.6,353.3,24.1,352.6,23.6,352"/>
		<path class="st0" d="M35.1,350c-0.4,0-0.8,0-1.2,0.1c-0.4,0.1-0.8,0.2-1.1,0.3c-0.3,0.1-0.6,0.2-0.9,0.3c-0.2,0.1-0.3,0.1-0.5,0.1
			c0-0.1,0-0.1,0-0.2c-0.1-0.2-0.3-0.4-0.7-0.4h-2.1c-0.4,0-0.6,0.2-0.6,0.6V363c0,0.4,0.2,0.6,0.6,0.6H31c0.4,0,0.6-0.2,0.6-0.6
			v-8.3c0-0.7,0.2-1.1,0.7-1.3c0.5-0.3,1-0.4,1.7-0.4c0.9,0,1.5,0.2,1.8,0.6c0.4,0.4,0.5,1,0.5,1.8v7.7c0,0.4,0.2,0.6,0.6,0.6h2.5
			c0.4,0,0.6-0.2,0.6-0.6v-8.1c0-1.6-0.4-2.8-1.3-3.6C38,350.4,36.8,350,35.1,350"/>
		<path class="st0" d="M50.9,356.9c-0.4-0.3-0.8-0.7-1.2-0.9c-0.4-0.3-0.9-0.5-1.3-0.8c-0.1-0.1-0.2-0.1-0.3-0.2
			c-0.1-0.1-0.2-0.1-0.3-0.2c-0.3-0.2-0.6-0.4-0.8-0.5c-0.2-0.1-0.2-0.3-0.2-0.6c0-0.4,0.2-0.5,0.3-0.6c0.7-0.3,1.5-0.2,2.3,0
			c0.5,0.1,0.9,0.3,1.3,0.5l0.2,0.1c0.3,0.2,0.8,0.1,0.9-0.2c0.1-0.1,0.1-0.3,0.1-0.4v-1.3c0-0.2-0.1-0.4-0.2-0.6
			c-0.1-0.1-0.3-0.2-0.4-0.3c-0.1-0.1-0.3-0.1-0.5-0.2c-0.1,0-0.3-0.1-0.4-0.1c-1.5-0.4-3.2-0.5-4.5-0.1c-0.6,0.2-1.1,0.4-1.5,0.7
			c-0.4,0.3-0.8,0.8-1,1.3c-0.3,0.5-0.4,1.1-0.4,1.8c0,0.5,0.1,1,0.2,1.4c0.2,0.4,0.4,0.7,0.7,1c0.3,0.3,0.6,0.6,0.9,0.8
			c0.3,0.2,0.7,0.5,1.1,0.7l1.3,0.8c0.3,0.2,0.6,0.4,0.9,0.6c0.2,0.2,0.4,0.4,0.4,0.8c0,0.5-0.2,0.7-0.4,0.7
			c-0.3,0.1-0.7,0.2-1.1,0.2c-0.6,0-1.1-0.1-1.6-0.2c-0.5-0.1-1-0.4-1.5-0.6c-0.1,0-0.1-0.1-0.2-0.1c-0.4-0.2-0.8,0-0.9,0.3
			c0,0.1-0.1,0.3-0.1,0.4v1.4c0,0.4,0.1,0.6,0.2,0.7c0.1,0.1,0.3,0.2,0.6,0.3c0.6,0.2,1.1,0.3,1.7,0.4c0.6,0.1,1.2,0.2,1.8,0.2
			c0.6,0,1.3-0.1,1.9-0.2c0.6-0.1,1.2-0.4,1.7-0.7c0.5-0.3,0.9-0.8,1.2-1.3c0.3-0.5,0.4-1.1,0.4-1.9c0-0.7-0.1-1.2-0.4-1.7
			C51.6,357.6,51.3,357.2,50.9,356.9"/>
		<path class="st0" d="M65,346.3h-2.7c-0.2,0-0.3,0.1-0.3,0.3V363c0,0.2,0.1,0.3,0.3,0.3H65c0.2,0,0.3-0.1,0.3-0.3v-16.4
			C65.4,346.4,65.2,346.3,65,346.3"/>
		<path class="st0" d="M76.7,350.3c-0.4,0-0.8,0-1.1,0.1c-0.4,0.1-0.7,0.1-1.1,0.3c-0.3,0.1-0.6,0.2-0.9,0.3s-0.6,0.2-0.9,0.2
			c0-0.2,0-0.3,0-0.4c0-0.1-0.2-0.2-0.4-0.2h-2.1c-0.2,0-0.3,0.1-0.3,0.3V363c0,0.2,0.1,0.3,0.3,0.3h2.5c0.2,0,0.3-0.1,0.3-0.3v-8.3
			c0-0.8,0.3-1.3,0.8-1.6c0.5-0.3,1.1-0.5,1.8-0.5c0.9,0,1.6,0.2,2,0.7c0.4,0.4,0.6,1.1,0.6,2v7.7c0,0.2,0.1,0.3,0.3,0.3H81
			c0.2,0,0.3-0.1,0.3-0.3v-8.1c0-1.5-0.4-2.6-1.2-3.4C79.4,350.7,78.2,350.3,76.7,350.3"/>
		<path class="st0" d="M92.3,357.1c-0.4-0.3-0.7-0.6-1.2-0.9c-0.4-0.3-0.9-0.5-1.4-0.8c-0.1-0.1-0.2-0.1-0.3-0.2
			c-0.1-0.1-0.2-0.1-0.3-0.2c-0.3-0.2-0.6-0.4-0.8-0.5c-0.2-0.2-0.4-0.5-0.4-0.8c0-0.4,0.2-0.7,0.5-0.9c0.3-0.2,0.7-0.2,1.1-0.2
			c0.5,0,0.9,0.1,1.5,0.2c0.5,0.1,1,0.3,1.4,0.5c0.1,0,0.1,0.1,0.2,0.1c0.1,0,0.2,0.1,0.3,0.1c0.1,0,0.2-0.1,0.2-0.2
			c0-0.1,0.1-0.2,0.1-0.3v-1.3c0-0.2,0-0.3-0.1-0.4c-0.1-0.1-0.2-0.2-0.3-0.2c-0.1-0.1-0.3-0.1-0.4-0.1c-0.2,0-0.3-0.1-0.4-0.1
			c-0.9-0.2-1.8-0.4-2.7-0.4c-0.6,0-1.2,0.1-1.7,0.2c-0.5,0.2-1,0.4-1.4,0.7c-0.4,0.3-0.7,0.7-0.9,1.2c-0.2,0.5-0.4,1-0.4,1.6
			c0,0.5,0.1,0.9,0.2,1.3c0.1,0.4,0.3,0.7,0.6,1c0.3,0.3,0.5,0.5,0.9,0.8c0.3,0.2,0.7,0.5,1.1,0.7l1.3,0.8c0.3,0.2,0.7,0.4,1,0.7
			c0.3,0.2,0.5,0.6,0.5,1c0,0.5-0.2,0.8-0.6,1c-0.4,0.2-0.8,0.2-1.2,0.2c-0.6,0-1.2-0.1-1.7-0.2c-0.5-0.1-1-0.4-1.6-0.7
			c-0.1,0-0.2-0.1-0.2-0.1c-0.1,0-0.2-0.1-0.2-0.1c-0.1,0-0.2,0.1-0.3,0.2c0,0.1,0,0.2,0,0.3v1.4c0,0.3,0,0.4,0.1,0.5
			c0.1,0.1,0.2,0.1,0.5,0.2c0.6,0.2,1.1,0.3,1.7,0.4c0.6,0.1,1.2,0.2,1.8,0.2c0.6,0,1.2-0.1,1.8-0.2c0.6-0.1,1.1-0.4,1.6-0.7
			c0.5-0.3,0.8-0.7,1.1-1.2c0.3-0.5,0.4-1.1,0.4-1.7c0-0.6-0.1-1.1-0.3-1.6C92.9,357.8,92.6,357.4,92.3,357.1"/>
		<path class="st0" d="M103.9,350.5H100v-3.1c0-0.2-0.1-0.3-0.3-0.3h-2.5c-0.2,0-0.3,0.1-0.3,0.3v3.1h-1.2c-0.2,0-0.3,0.1-0.3,0.3
			c0,0.5,0,0.9,0,1.1c0,0.2,0,0.4,0.1,0.5c0.1,0.1,0.2,0.1,0.5,0.1h1.1v7.4c0,0.5,0.1,1,0.2,1.5c0.1,0.5,0.4,0.9,0.8,1.2
			c0.4,0.3,0.9,0.6,1.5,0.7c0.5,0.1,1.1,0.2,1.6,0.2c0.4,0,0.9,0,1.4-0.1c0.5-0.1,1-0.2,1.4-0.4c0.2-0.1,0.3-0.2,0.3-0.2
			c0.1-0.1,0.1-0.2,0.1-0.4v-1.3c0-0.2-0.1-0.3-0.3-0.3c-0.1,0-0.3,0-0.4,0.1c-0.3,0.1-0.6,0.2-0.8,0.3c-0.3,0.1-0.6,0.1-0.9,0.1
			c-0.6,0-1.1-0.2-1.4-0.5c-0.3-0.3-0.4-0.8-0.4-1.4v-6.9h3.9c0.2,0,0.3-0.1,0.3-0.3v-1.4C104.2,350.6,104.1,350.5,103.9,350.5"/>
		<path class="st0" d="M109.5,350.5h-2.5c-0.2,0-0.3,0.1-0.3,0.3V363c0,0.2,0.1,0.3,0.3,0.3h2.5c0.2,0,0.3-0.1,0.3-0.3v-12.1
			C109.9,350.6,109.8,350.5,109.5,350.5"/>
		<path class="st0" d="M108.4,345.4c-0.6,0-1,0.1-1.4,0.3c-0.4,0.2-0.5,0.6-0.5,1.3c0,0.6,0.2,1,0.5,1.3c0.3,0.2,0.8,0.4,1.4,0.4
			c0.6,0,1-0.1,1.4-0.3c0.3-0.2,0.5-0.6,0.5-1.2c0-0.6-0.2-1-0.5-1.2C109.4,345.5,108.9,345.4,108.4,345.4"/>
		<path class="st0" d="M121.3,350.5h-3.9v-3.1c0-0.2-0.1-0.3-0.3-0.3h-2.5c-0.2,0-0.3,0.1-0.3,0.3v3.1h-1.2c-0.2,0-0.3,0.1-0.3,0.3
			c0,0.5,0,0.9,0,1.1c0,0.2,0,0.4,0.1,0.5c0.1,0.1,0.2,0.1,0.5,0.1h1.1v7.4c0,0.5,0.1,1,0.2,1.5c0.1,0.5,0.4,0.9,0.8,1.2
			c0.4,0.3,0.9,0.6,1.5,0.7c0.5,0.1,1.1,0.2,1.6,0.2c0.4,0,0.9,0,1.4-0.1c0.5-0.1,1-0.2,1.4-0.4c0.2-0.1,0.3-0.2,0.3-0.2
			c0.1-0.1,0.1-0.2,0.1-0.4v-1.3c0-0.2-0.1-0.3-0.3-0.3c-0.1,0-0.3,0-0.4,0.1c-0.3,0.1-0.6,0.2-0.8,0.3c-0.3,0.1-0.6,0.1-0.9,0.1
			c-0.6,0-1.1-0.2-1.4-0.5c-0.3-0.3-0.4-0.8-0.4-1.4v-6.9h3.9c0.2,0,0.3-0.1,0.3-0.3v-1.4C121.7,350.6,121.5,350.5,121.3,350.5"/>
		<path class="st0" d="M135.1,350.5h-2.5c-0.2,0-0.3,0.1-0.3,0.3v8.5c0,0.4-0.1,0.7-0.2,0.9c-0.2,0.2-0.4,0.4-0.6,0.6
			c-0.2,0.1-0.5,0.2-0.8,0.3c-0.3,0.1-0.6,0.1-0.9,0.1c-1,0-1.7-0.3-2-0.8c-0.4-0.5-0.6-1.2-0.6-2.2v-7.4c0-0.2-0.1-0.3-0.3-0.3
			h-2.5c-0.2,0-0.3,0.1-0.3,0.3v8.5c0,1.4,0.4,2.5,1.2,3.2c0.8,0.7,1.9,1,3.3,1c0.4,0,0.8,0,1.2-0.1c0.4-0.1,0.8-0.2,1.2-0.3
			c0.3-0.1,0.5-0.2,0.8-0.3c0.3-0.1,0.5-0.2,0.8-0.2h0.1c0,0.1,0,0.2,0,0.4c0,0.2,0.1,0.2,0.3,0.2h2.2c0.2,0,0.3-0.1,0.3-0.3v-12.1
			C135.4,350.6,135.3,350.5,135.1,350.5"/>
		<path class="st0" d="M146.8,350.5H143v-3.1c0-0.2-0.1-0.3-0.3-0.3h-2.5c-0.2,0-0.3,0.1-0.3,0.3v3.1h-1.2c-0.2,0-0.3,0.1-0.3,0.3
			c0,0.5,0,0.9,0,1.1c0,0.2,0,0.4,0.1,0.5c0.1,0.1,0.2,0.1,0.5,0.1h1v7.4c0,0.5,0.1,1,0.2,1.5c0.1,0.5,0.4,0.9,0.8,1.2
			c0.4,0.3,0.9,0.6,1.5,0.7c0.5,0.1,1.1,0.2,1.6,0.2c0.4,0,0.9,0,1.4-0.1c0.5-0.1,1-0.2,1.4-0.4c0.2-0.1,0.3-0.2,0.3-0.2
			c0.1-0.1,0.1-0.2,0.1-0.4v-1.3c0-0.2-0.1-0.3-0.3-0.3c-0.1,0-0.3,0-0.4,0.1c-0.3,0.1-0.6,0.2-0.8,0.3c-0.3,0.1-0.5,0.1-0.9,0.1
			c-0.6,0-1.1-0.2-1.4-0.5c-0.3-0.3-0.4-0.8-0.4-1.4v-6.9h3.9c0.2,0,0.3-0.1,0.3-0.3v-1.4C147.2,350.6,147.1,350.5,146.8,350.5"/>
		<path class="st0" d="M151.6,355.4v-0.4c0-0.4,0.1-0.8,0.2-1.1c0.2-0.3,0.4-0.6,0.6-0.8c0.3-0.2,0.6-0.4,1-0.5
			c0.4-0.1,0.8-0.2,1.2-0.2c1,0,1.7,0.3,2.2,0.8c0.5,0.5,0.8,1.2,0.8,2.2H151.6z M154.7,350.3c-1,0-2,0.2-2.7,0.5
			c-0.8,0.3-1.4,0.8-2,1.4c-0.5,0.6-0.9,1.3-1.2,2.1c-0.3,0.8-0.4,1.7-0.4,2.7c0,2.1,0.6,3.8,1.7,4.9c1.1,1.1,2.8,1.7,5,1.7
			c0.7,0,1.5-0.1,2.2-0.2c0.7-0.1,1.5-0.3,2.1-0.6c0.2-0.1,0.4-0.2,0.4-0.3c0.1-0.1,0.1-0.2,0.1-0.5v-1.1c0-0.1,0-0.2,0-0.3
			c0-0.1-0.1-0.2-0.2-0.2c-0.1,0-0.2,0-0.3,0.1c-0.3,0.2-0.7,0.3-1,0.5c-0.4,0.2-0.7,0.3-1.1,0.4c-0.5,0.1-1,0.2-1.6,0.2
			c-1.2,0-2.2-0.3-2.9-1c-0.7-0.7-1.1-1.6-1.1-2.8h8.8c0.2,0,0.3-0.1,0.3-0.3v-1c0-1.9-0.5-3.3-1.6-4.4
			C158.1,350.8,156.6,350.3,154.7,350.3"/>
		<path class="st0" d="M176.8,345.4c-0.3-0.1-0.6-0.2-1-0.3c-0.4-0.1-0.7-0.1-1-0.1c-0.5,0-1,0.1-1.5,0.2c-0.5,0.1-0.9,0.4-1.3,0.7
			c-0.3,0.3-0.6,0.6-0.8,1c-0.2,0.4-0.3,0.8-0.3,1.2c-0.1,0.4-0.1,0.8-0.1,1.2c0,0.4,0,0.8,0,1.2h-1.8c-0.2,0-0.3,0.1-0.3,0.3
			c0,0.5,0,0.9,0,1.2c0,0.2,0,0.4,0.1,0.5c0.1,0.1,0.3,0.1,0.6,0.1c0.3,0,0.8,0,1.4,0V363c0,0.2,0.1,0.3,0.3,0.3h2.5
			c0.2,0,0.3-0.1,0.3-0.3v-10.4h2.8c0.2,0,0.3-0.1,0.3-0.3v-1.4c0-0.2-0.1-0.3-0.3-0.3H174c0-0.3,0-0.7,0-1.1c0-0.4,0-0.7,0.1-1.1
			c0.1-0.3,0.2-0.6,0.5-0.8c0.2-0.2,0.6-0.3,1.1-0.3c0.2,0,0.5,0,0.7,0.1c0.2,0.1,0.4,0.1,0.5,0.1c0.1,0,0.2,0,0.2-0.1
			c0-0.1,0.1-0.2,0.1-0.2V346c0-0.2,0-0.3-0.1-0.3C177,345.6,176.9,345.5,176.8,345.4"/>
		<path class="st0" d="M188,358.6c-0.1,0.5-0.3,1-0.5,1.5c-0.3,0.4-0.6,0.8-1,1.1c-0.4,0.3-0.9,0.4-1.6,0.4c-0.7,0-1.2-0.1-1.6-0.4
			c-0.4-0.3-0.8-0.7-1-1.1c-0.2-0.4-0.4-0.9-0.5-1.5c-0.1-0.6-0.2-1.1-0.2-1.6c0-0.5,0.1-1,0.2-1.6c0.1-0.5,0.3-1,0.5-1.5
			c0.3-0.4,0.6-0.8,1-1.1c0.4-0.3,1-0.4,1.6-0.4c0.6,0,1.2,0.1,1.6,0.4c0.4,0.3,0.8,0.7,1,1.1c0.3,0.5,0.4,1,0.5,1.5
			c0.1,0.5,0.1,1.1,0.1,1.6S188.1,358.1,188,358.6 M189.8,352.2c-0.5-0.6-1.2-1-2-1.4c-0.8-0.3-1.7-0.5-2.8-0.5
			c-0.9,0-1.7,0.1-2.4,0.2c-0.7,0.2-1.4,0.5-2.1,1.1c-0.8,0.7-1.4,1.5-1.6,2.4c-0.3,0.9-0.4,1.9-0.4,2.9c0,1,0.1,2,0.4,2.9
			c0.3,0.9,0.8,1.7,1.6,2.4c0.7,0.6,1.3,0.9,2,1.1c0.7,0.2,1.5,0.3,2.3,0.3c0.8,0,1.6-0.1,2.3-0.3c0.7-0.2,1.4-0.5,2.1-1.1
			c0.8-0.7,1.4-1.5,1.6-2.4c0.3-0.9,0.4-1.9,0.4-2.9c0-1-0.1-1.9-0.4-2.7C190.7,353.5,190.3,352.7,189.8,352.2"/>
		<path class="st0" d="M201.9,350.5c-0.1,0-0.2,0-0.3,0c-0.1,0-0.2,0-0.3,0c-0.5,0-1,0.1-1.5,0.2c-0.5,0.1-1,0.3-1.4,0.5
			c-0.2,0.1-0.3,0.1-0.4,0.1c-0.1,0-0.2,0-0.4,0.1c0-0.2,0-0.4,0-0.5c0-0.2-0.1-0.2-0.4-0.2H195c-0.2,0-0.3,0.1-0.3,0.3V363
			c0,0.2,0.1,0.3,0.3,0.3h2.5c0.2,0,0.3-0.1,0.3-0.3v-8.1c0-0.7,0.2-1.2,0.5-1.5c0.3-0.2,0.9-0.4,1.6-0.4c0.4,0,0.7,0,1,0.1
			c0.3,0.1,0.6,0.1,1,0.1c0.3,0,0.4-0.1,0.4-0.4V351c0-0.2,0-0.3-0.1-0.3C202.2,350.6,202.1,350.5,201.9,350.5"/>
		<path class="st0" d="M223.1,346.3h-13.3c-0.2,0-0.3,0.1-0.3,0.3v1.8c0,0.2,0.1,0.3,0.3,0.3h4.9V363c0,0.2,0.1,0.3,0.3,0.3h2.7
			c0.2,0,0.3-0.1,0.3-0.3v-14.2h5c0.2,0,0.3-0.1,0.3-0.3v-1.8C223.4,346.4,223.3,346.3,223.1,346.3"/>
		<path class="st0" d="M231.7,350.5c-0.1,0-0.2,0-0.3,0c-0.1,0-0.2,0-0.3,0c-0.5,0-1,0.1-1.5,0.2c-0.5,0.1-1,0.3-1.4,0.5
			c-0.2,0.1-0.3,0.1-0.4,0.1c-0.1,0-0.2,0-0.4,0.1c0-0.2,0-0.4,0-0.5c0-0.2-0.1-0.2-0.4-0.2h-2.1c-0.2,0-0.3,0.1-0.3,0.3V363
			c0,0.2,0.1,0.3,0.3,0.3h2.5c0.2,0,0.3-0.1,0.3-0.3v-8.1c0-0.7,0.2-1.2,0.5-1.5c0.3-0.2,0.9-0.4,1.6-0.4c0.4,0,0.7,0,1,0.1
			c0.3,0.1,0.6,0.1,1,0.1c0.3,0,0.4-0.1,0.4-0.4V351c0-0.2,0-0.3-0.1-0.3C232,350.6,231.8,350.5,231.7,350.5"/>
		<path class="st0" d="M241.3,359.5c0,0.3,0,0.5-0.1,0.8c-0.1,0.2-0.2,0.4-0.5,0.6c-0.2,0.2-0.5,0.3-0.8,0.4
			c-0.3,0.1-0.6,0.1-0.9,0.1c-0.3,0-0.6,0-0.9-0.1c-0.3-0.1-0.5-0.2-0.8-0.3c-0.2-0.1-0.4-0.3-0.5-0.5s-0.2-0.5-0.2-0.9
			c0-0.4,0.1-0.7,0.3-0.9c0.2-0.2,0.4-0.5,0.7-0.6c0.3-0.2,0.6-0.3,0.9-0.4c0.3-0.1,0.6-0.2,0.9-0.3l2-0.6V359.5z M243,351
			c-0.5-0.3-1-0.4-1.6-0.5c-0.6-0.1-1.2-0.2-1.8-0.2c-0.8,0-1.6,0.1-2.4,0.2c-0.8,0.1-1.6,0.3-2.4,0.6c-0.2,0.1-0.3,0.2-0.4,0.2
			c-0.1,0.1-0.1,0.2-0.1,0.4v1.4c0,0.1,0,0.2,0.1,0.3c0,0.1,0.1,0.1,0.2,0.1c0.1,0,0.2,0,0.2,0c0.1,0,0.1-0.1,0.2-0.1
			c0.7-0.3,1.3-0.6,2-0.8c0.7-0.2,1.4-0.3,2.1-0.3c0.2,0,0.5,0,0.7,0.1c0.3,0,0.5,0.1,0.7,0.2c0.2,0.1,0.4,0.2,0.6,0.4
			c0.1,0.2,0.2,0.4,0.2,0.7c0,0.3-0.1,0.6-0.3,0.7c-0.2,0.1-0.4,0.2-0.7,0.3l-2.7,0.9c-0.6,0.2-1.1,0.4-1.6,0.6
			c-0.5,0.2-0.9,0.5-1.3,0.8c-0.4,0.3-0.7,0.7-0.9,1.1c-0.2,0.4-0.3,1-0.3,1.7c0,0.6,0.1,1.2,0.3,1.6c0.2,0.5,0.5,0.9,0.9,1.2
			c0.4,0.3,0.8,0.5,1.3,0.7c0.5,0.2,1.1,0.2,1.7,0.2c0.5,0,0.9,0,1.2-0.1c0.4-0.1,0.7-0.2,1.2-0.4c0.2-0.1,0.4-0.2,0.6-0.3
			c0.2-0.1,0.4-0.1,0.7-0.1h0.2c0,0.1,0,0.3,0,0.4c0,0.1,0.1,0.2,0.3,0.2h2.2c0.2,0,0.3-0.1,0.3-0.3v-9.1c0-0.7-0.1-1.3-0.4-1.8
			C243.8,351.7,243.4,351.3,243,351"/>
		<path class="st0" d="M250.3,345.4c-0.6,0-1,0.1-1.4,0.3c-0.4,0.2-0.5,0.6-0.5,1.3c0,0.6,0.2,1,0.5,1.3c0.3,0.2,0.8,0.4,1.4,0.4
			c0.6,0,1-0.1,1.4-0.3c0.3-0.2,0.5-0.6,0.5-1.2c0-0.6-0.2-1-0.5-1.2C251.3,345.5,250.8,345.4,250.3,345.4"/>
		<path class="st0" d="M251.4,350.5H249c-0.2,0-0.3,0.1-0.3,0.3V363c0,0.2,0.1,0.3,0.3,0.3h2.5c0.2,0,0.3-0.1,0.3-0.3v-12.1
			C251.8,350.6,251.7,350.5,251.4,350.5"/>
		<path class="st0" d="M263.1,350.3c-0.4,0-0.8,0-1.1,0.1c-0.4,0.1-0.7,0.1-1.1,0.3c-0.3,0.1-0.6,0.2-0.9,0.3s-0.6,0.2-0.9,0.2
			c0-0.2,0-0.3,0-0.4c0-0.1-0.2-0.2-0.4-0.2h-2.1c-0.2,0-0.3,0.1-0.3,0.3V363c0,0.2,0.1,0.3,0.3,0.3h2.5c0.2,0,0.3-0.1,0.3-0.3v-8.3
			c0-0.8,0.3-1.3,0.8-1.6c0.5-0.3,1.1-0.5,1.8-0.5c0.9,0,1.6,0.2,2,0.7c0.4,0.4,0.6,1.1,0.6,2v7.7c0,0.2,0.1,0.3,0.3,0.3h2.5
			c0.2,0,0.3-0.1,0.3-0.3v-8.1c0-1.5-0.4-2.6-1.2-3.4C265.8,350.7,264.6,350.3,263.1,350.3"/>
		<path class="st0" d="M273.5,345.4c-0.6,0-1,0.1-1.4,0.3c-0.4,0.2-0.5,0.6-0.5,1.3c0,0.6,0.2,1,0.5,1.3c0.3,0.2,0.8,0.4,1.4,0.4
			c0.6,0,1-0.1,1.4-0.3c0.3-0.2,0.5-0.6,0.5-1.2c0-0.6-0.2-1-0.5-1.2C274.5,345.5,274,345.4,273.5,345.4"/>
		<path class="st0" d="M274.6,350.5h-2.5c-0.2,0-0.3,0.1-0.3,0.3V363c0,0.2,0.1,0.3,0.3,0.3h2.5c0.2,0,0.3-0.1,0.3-0.3v-12.1
			C275,350.6,274.9,350.5,274.6,350.5"/>
		<path class="st0" d="M286.3,350.3c-0.4,0-0.8,0-1.1,0.1c-0.4,0.1-0.7,0.1-1.1,0.3c-0.3,0.1-0.6,0.2-0.9,0.3s-0.6,0.2-0.9,0.2
			c0-0.2,0-0.3,0-0.4c0-0.1-0.2-0.2-0.4-0.2h-2.1c-0.2,0-0.3,0.1-0.3,0.3V363c0,0.2,0.1,0.3,0.3,0.3h2.5c0.2,0,0.3-0.1,0.3-0.3v-8.3
			c0-0.8,0.3-1.3,0.8-1.6c0.5-0.3,1.1-0.5,1.8-0.5c0.9,0,1.6,0.2,2,0.7c0.4,0.4,0.6,1.1,0.6,2v7.7c0,0.2,0.1,0.3,0.3,0.3h2.5
			c0.2,0,0.3-0.1,0.3-0.3v-8.1c0-1.5-0.4-2.6-1.2-3.4C289,350.7,287.8,350.3,286.3,350.3"/>
		<path class="st0" d="M303.4,359.5c0,0.3-0.1,0.6-0.2,0.8s-0.4,0.4-0.6,0.5c-0.2,0.1-0.5,0.2-0.8,0.3c-0.3,0.1-0.6,0.1-0.9,0.1
			c-0.7,0-1.3-0.1-1.7-0.3c-0.5-0.2-0.9-0.5-1.2-0.9s-0.5-0.8-0.7-1.4c-0.1-0.5-0.2-1.1-0.2-1.7c0-0.6,0.1-1.2,0.2-1.7
			c0.1-0.5,0.3-1,0.6-1.4c0.3-0.4,0.7-0.7,1.1-1c0.5-0.2,1.1-0.4,1.7-0.4c0.3,0,0.6,0,0.9,0.1c0.3,0.1,0.6,0.2,0.9,0.3
			c0.3,0.2,0.6,0.4,0.7,0.6c0.1,0.2,0.1,0.5,0.1,0.9V359.5z M306.3,350.5h-2.2c-0.2,0-0.3,0.1-0.3,0.2c0,0.1,0,0.3,0,0.4
			c-0.1,0-0.2,0-0.3,0c-0.1,0-0.2-0.1-0.3-0.2c-0.4-0.3-0.8-0.4-1.3-0.5c-0.4-0.1-0.9-0.1-1.4-0.1c-1,0-1.9,0.2-2.7,0.5
			c-0.8,0.4-1.5,0.8-2,1.4c-0.6,0.6-1,1.3-1.3,2.1c-0.3,0.8-0.4,1.7-0.4,2.6c0,0.9,0.1,1.8,0.4,2.5c0.3,0.8,0.7,1.4,1.2,2
			c0.5,0.6,1.2,1,1.9,1.3c0.8,0.3,1.6,0.5,2.6,0.5c0.5,0,1,0,1.4-0.1c0.4-0.1,0.8-0.2,1.3-0.5c0.1-0.1,0.2-0.1,0.3-0.2
			c0.1,0,0.2-0.1,0.4-0.1c0,0.5,0,1,0,1.5c0,0.5-0.2,1-0.6,1.4c-0.4,0.5-0.9,0.8-1.4,0.9s-1.1,0.2-1.7,0.2c-0.8,0-1.6-0.1-2.3-0.3
			c-0.7-0.2-1.4-0.4-2.1-0.8c-0.1,0-0.1-0.1-0.2-0.1c-0.1,0-0.1,0-0.2,0c-0.1,0-0.2,0-0.3,0.1c0,0.1-0.1,0.2-0.1,0.3v1.5
			c0,0.2,0.1,0.3,0.2,0.4c0.1,0.1,0.3,0.2,0.5,0.3c0.2,0.1,0.4,0.1,0.6,0.2c0.2,0,0.4,0.1,0.5,0.1c1.1,0.3,2.3,0.4,3.5,0.4
			c0.4,0,0.9,0,1.4-0.1c0.5,0,0.9-0.1,1.4-0.2c0.5-0.1,0.9-0.2,1.3-0.4c0.4-0.2,0.8-0.4,1.2-0.7c0.7-0.5,1.1-1.1,1.3-1.7
			c0.2-0.6,0.2-1.4,0.2-2.2v-12.5C306.6,350.6,306.5,350.5,306.3,350.5"/>
		<path class="st0" d="M324.4,359.5c0,0.3,0,0.5-0.1,0.8c-0.1,0.2-0.2,0.4-0.5,0.6c-0.2,0.2-0.5,0.3-0.8,0.4
			c-0.3,0.1-0.6,0.1-0.9,0.1c-0.3,0-0.6,0-0.9-0.1c-0.3-0.1-0.5-0.2-0.8-0.3c-0.2-0.1-0.4-0.3-0.5-0.5s-0.2-0.5-0.2-0.9
			c0-0.4,0.1-0.7,0.3-0.9c0.2-0.2,0.4-0.5,0.7-0.6c0.3-0.2,0.6-0.3,0.9-0.4c0.3-0.1,0.6-0.2,0.9-0.3l2-0.6V359.5z M326,351
			c-0.5-0.3-1-0.4-1.6-0.5c-0.6-0.1-1.2-0.2-1.8-0.2c-0.8,0-1.6,0.1-2.4,0.2c-0.8,0.1-1.6,0.3-2.3,0.6c-0.2,0.1-0.3,0.2-0.4,0.2
			s-0.1,0.2-0.1,0.4v1.4c0,0.1,0,0.2,0.1,0.3c0,0.1,0.1,0.1,0.2,0.1c0.1,0,0.2,0,0.2,0c0.1,0,0.1-0.1,0.2-0.1c0.7-0.3,1.3-0.6,2-0.8
			c0.7-0.2,1.4-0.3,2.1-0.3c0.2,0,0.5,0,0.8,0.1c0.3,0,0.5,0.1,0.7,0.2c0.2,0.1,0.4,0.2,0.6,0.4c0.1,0.2,0.2,0.4,0.2,0.7
			c0,0.3-0.1,0.6-0.3,0.7c-0.2,0.1-0.4,0.2-0.7,0.3l-2.7,0.9c-0.6,0.2-1.1,0.4-1.6,0.6c-0.5,0.2-0.9,0.5-1.3,0.8
			c-0.4,0.3-0.7,0.7-0.9,1.1c-0.2,0.4-0.3,1-0.3,1.7c0,0.6,0.1,1.2,0.3,1.6c0.2,0.5,0.5,0.9,0.9,1.2c0.4,0.3,0.8,0.5,1.3,0.7
			c0.5,0.2,1.1,0.2,1.7,0.2c0.5,0,0.9,0,1.2-0.1c0.3-0.1,0.7-0.2,1.2-0.4c0.2-0.1,0.4-0.2,0.6-0.3c0.2-0.1,0.4-0.1,0.7-0.1h0.2
			c0,0.1,0,0.3,0,0.4c0,0.1,0.1,0.2,0.3,0.2h2.2c0.2,0,0.3-0.1,0.3-0.3v-9.1c0-0.7-0.1-1.3-0.4-1.8C326.8,351.7,326.5,351.3,326,351
			"/>
		<path class="st0" d="M338.6,350.3c-0.4,0-0.8,0-1.1,0.1c-0.4,0.1-0.7,0.1-1.1,0.3c-0.3,0.1-0.6,0.2-0.9,0.3s-0.6,0.2-0.9,0.2
			c0-0.2,0-0.3,0-0.4c0-0.1-0.2-0.2-0.4-0.2H332c-0.2,0-0.3,0.1-0.3,0.3V363c0,0.2,0.1,0.3,0.3,0.3h2.5c0.2,0,0.3-0.1,0.3-0.3v-8.3
			c0-0.8,0.3-1.3,0.8-1.6c0.5-0.3,1.1-0.5,1.8-0.5c0.9,0,1.6,0.2,2,0.7c0.4,0.4,0.6,1.1,0.6,2v7.7c0,0.2,0.1,0.3,0.3,0.3h2.5
			c0.2,0,0.3-0.1,0.3-0.3v-8.1c0-1.5-0.4-2.6-1.2-3.4C341.3,350.7,340.1,350.3,338.6,350.3"/>
		<path class="st0" d="M355.7,359.6c0,0.4-0.1,0.7-0.3,0.9c-0.2,0.2-0.4,0.4-0.6,0.5c-0.3,0.1-0.6,0.2-0.9,0.3
			c-0.3,0.1-0.6,0.1-0.9,0.1c-0.7,0-1.3-0.1-1.7-0.4c-0.5-0.2-0.8-0.6-1.1-1c-0.3-0.4-0.5-0.9-0.6-1.4c-0.1-0.5-0.2-1.1-0.2-1.7
			c0-0.6,0.1-1.2,0.2-1.7c0.1-0.5,0.3-1,0.6-1.4c0.3-0.4,0.7-0.8,1.1-1s1-0.4,1.7-0.4c0.3,0,0.7,0,1,0.1c0.4,0.1,0.7,0.2,1,0.4
			c0.3,0.2,0.5,0.4,0.5,0.6s0.1,0.5,0.1,0.8V359.6z M358.5,345.4h-2.5c-0.2,0-0.3,0.1-0.3,0.3v5.4c-0.1,0-0.3,0-0.3,0
			c-0.1,0-0.2-0.1-0.3-0.2c-0.4-0.2-0.8-0.4-1.2-0.5c-0.4-0.1-0.8-0.1-1.3-0.1c-1,0-1.9,0.2-2.7,0.5c-0.8,0.4-1.4,0.8-2,1.5
			c-0.5,0.6-0.9,1.3-1.2,2.1c-0.3,0.8-0.4,1.7-0.4,2.6c0,0.9,0.1,1.8,0.4,2.6c0.3,0.8,0.7,1.5,1.2,2.1c0.5,0.6,1.2,1,1.9,1.4
			c0.8,0.3,1.6,0.5,2.6,0.5c0.5,0,1.1-0.1,1.5-0.2c0.5-0.1,1-0.3,1.4-0.5c0.1-0.1,0.2-0.1,0.3-0.1c0.1,0,0.2,0,0.3,0
			c0,0.2,0,0.3,0,0.5c0,0.2,0.1,0.2,0.4,0.2h2.1c0.2,0,0.3-0.1,0.3-0.3v-17.3C358.9,345.5,358.8,345.4,358.5,345.4"/>
		<path class="st0" d="M375.6,353.6h-2.2v-5.1h2.2c0.8,0,1.4,0.2,1.8,0.7c0.4,0.5,0.7,1.1,0.7,1.8c0,0.8-0.2,1.4-0.7,1.9
			C377,353.3,376.4,353.6,375.6,353.6 M383.1,362.5l-2.8-4.1c-0.4-0.6-0.8-1.1-1.2-1.7c-0.4-0.5-0.8-1.1-1.2-1.7
			c1.3-0.2,2.2-0.6,2.8-1.4c0.6-0.7,0.9-1.7,0.9-2.9c0-0.6-0.1-1.2-0.3-1.8c-0.2-0.6-0.6-1.1-1.1-1.5c-0.6-0.5-1.2-0.8-1.9-1
			c-0.7-0.1-1.4-0.2-2.2-0.2h-5.8c-0.2,0-0.3,0.1-0.3,0.3V363c0,0.2,0.1,0.3,0.3,0.3h2.7c0.2,0,0.3-0.1,0.3-0.3v-7.6h0.6
			c0.2,0,0.3,0.1,0.5,0.4l5,7.4c0.1,0.1,0.2,0.2,0.3,0.2h3c0.1,0,0.3,0,0.4-0.1c0.2,0,0.2-0.1,0.2-0.3c0-0.1,0-0.2-0.1-0.3
			C383.2,362.7,383.1,362.6,383.1,362.5"/>
		<path class="st0" d="M387.6,355.4v-0.4c0-0.4,0.1-0.8,0.2-1.1c0.2-0.3,0.4-0.6,0.6-0.8c0.3-0.2,0.6-0.4,1-0.5
			c0.4-0.1,0.8-0.2,1.2-0.2c1,0,1.7,0.3,2.2,0.8c0.5,0.5,0.8,1.2,0.8,2.2H387.6z M390.7,350.3c-1,0-2,0.2-2.7,0.5
			c-0.8,0.3-1.4,0.8-2,1.4c-0.5,0.6-0.9,1.3-1.2,2.1c-0.3,0.8-0.4,1.7-0.4,2.7c0,2.1,0.6,3.8,1.7,4.9c1.1,1.1,2.8,1.7,5,1.7
			c0.7,0,1.5-0.1,2.2-0.2c0.7-0.1,1.5-0.3,2.1-0.6c0.2-0.1,0.4-0.2,0.4-0.3c0.1-0.1,0.1-0.2,0.1-0.5v-1.1c0-0.1,0-0.2,0-0.3
			c0-0.1-0.1-0.2-0.2-0.2c-0.1,0-0.2,0-0.3,0.1c-0.3,0.2-0.7,0.3-1,0.5c-0.4,0.2-0.7,0.3-1.1,0.4c-0.5,0.1-1,0.2-1.6,0.2
			c-1.2,0-2.2-0.3-2.9-1c-0.7-0.7-1.1-1.6-1.1-2.8h8.8c0.2,0,0.3-0.1,0.3-0.3v-1c0-1.9-0.5-3.3-1.6-4.4
			C394.1,350.8,392.6,350.3,390.7,350.3"/>
		<path class="st0" d="M406.6,357.1c-0.4-0.3-0.7-0.6-1.2-0.9c-0.4-0.3-0.9-0.5-1.4-0.8c-0.1-0.1-0.2-0.1-0.3-0.2
			c-0.1-0.1-0.2-0.1-0.3-0.2c-0.3-0.2-0.6-0.4-0.8-0.5c-0.2-0.2-0.4-0.5-0.4-0.8c0-0.4,0.2-0.7,0.5-0.9c0.3-0.2,0.7-0.2,1.1-0.2
			c0.5,0,0.9,0.1,1.5,0.2c0.5,0.1,1,0.3,1.4,0.5c0.1,0,0.1,0.1,0.2,0.1c0.1,0,0.2,0.1,0.3,0.1c0.1,0,0.2-0.1,0.2-0.2
			c0-0.1,0.1-0.2,0.1-0.3v-1.3c0-0.2,0-0.3-0.1-0.4c-0.1-0.1-0.2-0.2-0.3-0.2c-0.1-0.1-0.3-0.1-0.4-0.1c-0.2,0-0.3-0.1-0.4-0.1
			c-0.9-0.2-1.8-0.4-2.7-0.4c-0.6,0-1.2,0.1-1.7,0.2c-0.5,0.2-1,0.4-1.4,0.7c-0.4,0.3-0.7,0.7-0.9,1.2c-0.2,0.5-0.4,1-0.4,1.6
			c0,0.5,0.1,0.9,0.2,1.3c0.1,0.4,0.3,0.7,0.6,1c0.3,0.3,0.5,0.5,0.9,0.8c0.3,0.2,0.7,0.5,1.1,0.7l1.3,0.8c0.3,0.2,0.7,0.4,1,0.7
			c0.3,0.2,0.5,0.6,0.5,1c0,0.5-0.2,0.8-0.6,1c-0.4,0.2-0.8,0.2-1.2,0.2c-0.6,0-1.2-0.1-1.7-0.2c-0.5-0.1-1-0.4-1.6-0.7
			c-0.1,0-0.2-0.1-0.2-0.1c-0.1,0-0.1-0.1-0.2-0.1c-0.1,0-0.2,0.1-0.3,0.2c0,0.1,0,0.2,0,0.3v1.4c0,0.3,0,0.4,0.1,0.5
			c0.1,0.1,0.2,0.1,0.5,0.2c0.6,0.2,1.1,0.3,1.7,0.4c0.6,0.1,1.2,0.2,1.8,0.2c0.6,0,1.2-0.1,1.8-0.2c0.6-0.1,1.1-0.4,1.6-0.7
			c0.5-0.3,0.8-0.7,1.1-1.2c0.3-0.5,0.4-1.1,0.4-1.7c0-0.6-0.1-1.1-0.3-1.6C407.2,357.8,406.9,357.4,406.6,357.1"/>
		<path class="st0" d="M413.3,355.4v-0.4c0-0.4,0.1-0.8,0.2-1.1c0.2-0.3,0.4-0.6,0.6-0.8c0.3-0.2,0.6-0.4,1-0.5
			c0.4-0.1,0.8-0.2,1.2-0.2c1,0,1.7,0.3,2.2,0.8c0.5,0.5,0.8,1.2,0.8,2.2H413.3z M416.4,350.3c-1,0-2,0.2-2.7,0.5
			c-0.8,0.3-1.4,0.8-2,1.4c-0.5,0.6-0.9,1.3-1.2,2.1s-0.4,1.7-0.4,2.7c0,2.1,0.6,3.8,1.7,4.9c1.1,1.1,2.8,1.7,5,1.7
			c0.7,0,1.5-0.1,2.2-0.2c0.7-0.1,1.5-0.3,2.1-0.6c0.2-0.1,0.4-0.2,0.4-0.3c0.1-0.1,0.1-0.2,0.1-0.5v-1.1c0-0.1,0-0.2,0-0.3
			c0-0.1-0.1-0.2-0.3-0.2c-0.1,0-0.2,0-0.3,0.1c-0.4,0.2-0.7,0.3-1.1,0.5c-0.3,0.2-0.7,0.3-1.1,0.4c-0.5,0.1-1,0.2-1.6,0.2
			c-1.2,0-2.2-0.3-2.9-1c-0.7-0.7-1.1-1.6-1.1-2.8h8.8c0.2,0,0.3-0.1,0.3-0.3v-1c0-1.9-0.5-3.3-1.6-4.4
			C419.8,350.8,418.3,350.3,416.4,350.3"/>
		<path class="st0" d="M432.4,359.5c0,0.3,0,0.5-0.1,0.8c-0.1,0.2-0.2,0.4-0.5,0.6c-0.2,0.2-0.5,0.3-0.8,0.4
			c-0.3,0.1-0.6,0.1-0.9,0.1c-0.3,0-0.6,0-0.9-0.1c-0.3-0.1-0.5-0.2-0.8-0.3c-0.2-0.1-0.4-0.3-0.5-0.5s-0.2-0.5-0.2-0.9
			c0-0.4,0.1-0.7,0.3-0.9c0.2-0.2,0.4-0.5,0.7-0.6c0.3-0.2,0.6-0.3,0.9-0.4c0.3-0.1,0.6-0.2,0.9-0.3l2-0.6V359.5z M434,351
			c-0.5-0.3-1-0.4-1.6-0.5c-0.6-0.1-1.2-0.2-1.8-0.2c-0.8,0-1.6,0.1-2.4,0.2c-0.8,0.1-1.6,0.3-2.3,0.6c-0.2,0.1-0.3,0.2-0.4,0.2
			c-0.1,0.1-0.1,0.2-0.1,0.4v1.4c0,0.1,0,0.2,0.1,0.3c0,0.1,0.1,0.1,0.2,0.1c0.1,0,0.2,0,0.2,0c0.1,0,0.1-0.1,0.2-0.1
			c0.7-0.3,1.3-0.6,2-0.8c0.7-0.2,1.4-0.3,2.1-0.3c0.2,0,0.5,0,0.8,0.1c0.3,0,0.5,0.1,0.7,0.2c0.2,0.1,0.4,0.2,0.6,0.4
			c0.1,0.2,0.2,0.4,0.2,0.7c0,0.3-0.1,0.6-0.3,0.7c-0.2,0.1-0.4,0.2-0.7,0.3l-2.7,0.9c-0.6,0.2-1.1,0.4-1.6,0.6
			c-0.5,0.2-0.9,0.5-1.3,0.8c-0.4,0.3-0.7,0.7-0.9,1.1c-0.2,0.4-0.3,1-0.3,1.7c0,0.6,0.1,1.2,0.3,1.6c0.2,0.5,0.5,0.9,0.9,1.2
			c0.4,0.3,0.8,0.5,1.3,0.7c0.5,0.2,1.1,0.2,1.7,0.2c0.5,0,0.9,0,1.2-0.1c0.3-0.1,0.7-0.2,1.2-0.4c0.2-0.1,0.4-0.2,0.6-0.3
			c0.2-0.1,0.4-0.1,0.7-0.1h0.2c0,0.1,0,0.3,0,0.4c0,0.1,0.1,0.2,0.3,0.2h2.2c0.2,0,0.3-0.1,0.3-0.3v-9.1c0-0.7-0.1-1.3-0.4-1.8
			C434.8,351.7,434.4,351.3,434,351"/>
		<path class="st0" d="M446.8,350.5c-0.1,0-0.2,0-0.3,0c-0.1,0-0.2,0-0.3,0c-0.5,0-1,0.1-1.5,0.2c-0.5,0.1-1,0.3-1.4,0.5
			c-0.2,0.1-0.3,0.1-0.4,0.1c-0.1,0-0.2,0-0.4,0.1c0-0.2,0-0.4,0-0.5c0-0.2-0.1-0.2-0.4-0.2H440c-0.2,0-0.3,0.1-0.3,0.3V363
			c0,0.2,0.1,0.3,0.3,0.3h2.5c0.2,0,0.3-0.1,0.3-0.3v-8.1c0-0.7,0.2-1.2,0.5-1.5c0.3-0.2,0.9-0.4,1.6-0.4c0.3,0,0.7,0,1,0.1
			c0.3,0.1,0.6,0.1,1,0.1c0.3,0,0.4-0.1,0.4-0.4V351c0-0.2,0-0.3-0.1-0.3C447.2,350.6,447,350.5,446.8,350.5"/>
		<path class="st0" d="M459.1,360.4c-0.1,0-0.2,0-0.2,0.1c-0.1,0-0.1,0.1-0.2,0.1c-0.5,0.2-1,0.4-1.5,0.6c-0.5,0.1-1.1,0.2-1.6,0.2
			c-0.7,0-1.3-0.1-1.8-0.3c-0.5-0.2-0.9-0.5-1.2-0.9c-0.3-0.4-0.5-0.9-0.6-1.4c-0.1-0.5-0.2-1.1-0.2-1.8c0-0.7,0.1-1.3,0.2-1.8
			c0.1-0.5,0.4-1,0.7-1.4c0.3-0.4,0.7-0.7,1.2-0.9c0.5-0.2,1.1-0.3,1.9-0.3c0.5,0,1,0.1,1.5,0.2c0.5,0.1,0.9,0.3,1.4,0.5
			c0.1,0,0.1,0.1,0.2,0.1c0.1,0,0.2,0.1,0.3,0.1c0.1,0,0.2,0,0.2-0.1c0-0.1,0.1-0.1,0.1-0.2v-1.4c0-0.2,0-0.3-0.1-0.4
			c-0.1-0.1-0.2-0.2-0.3-0.3c-0.1-0.1-0.3-0.1-0.4-0.2c-0.1,0-0.3-0.1-0.4-0.1c-0.9-0.3-1.9-0.4-2.9-0.4c-1,0-2,0.2-2.8,0.5
			c-0.8,0.3-1.5,0.8-2.1,1.4c-0.6,0.6-1,1.3-1.3,2.1c-0.3,0.8-0.5,1.7-0.5,2.7c0,1,0.1,1.9,0.4,2.7c0.3,0.8,0.7,1.5,1.3,2.1
			c0.6,0.6,1.2,1,2,1.3c0.8,0.3,1.7,0.4,2.8,0.4c0.3,0,0.6,0,0.9-0.1c0.3,0,0.7-0.1,1-0.1c0.3-0.1,0.7-0.1,1-0.2
			c0.3-0.1,0.6-0.2,0.9-0.3c0.2-0.1,0.3-0.2,0.4-0.2c0.1-0.1,0.1-0.2,0.1-0.5c0-0.1,0-0.2,0-0.4c0-0.2,0-0.4,0-0.6
			c0-0.2,0-0.4-0.1-0.5C459.3,360.5,459.2,360.4,459.1,360.4"/>
		<path class="st0" d="M472.5,351.4c-0.8-0.8-1.9-1.1-3.3-1.1c-0.5,0-1.1,0-1.5,0.1c-0.5,0.1-1,0.3-1.5,0.5
			c-0.2,0.1-0.3,0.1-0.4,0.2c-0.1,0-0.2,0-0.4,0h-0.1v-5.4c0-0.2-0.1-0.3-0.3-0.3h-2.5c-0.2,0-0.3,0.1-0.3,0.3V363
			c0,0.2,0.1,0.3,0.3,0.3h2.5c0.2,0,0.3-0.1,0.3-0.3v-8.6c0-0.3,0.1-0.6,0.3-0.9c0.2-0.2,0.4-0.4,0.7-0.6s0.5-0.2,0.9-0.3
			c0.3-0.1,0.6-0.1,0.9-0.1c0.4,0,0.7,0.1,1,0.1c0.3,0.1,0.6,0.3,0.9,0.6c0.3,0.3,0.5,0.7,0.6,1.1c0.1,0.4,0.1,0.8,0.1,1.3v7.3
			c0,0.2,0.1,0.3,0.3,0.3h2.5c0.2,0,0.3-0.1,0.3-0.3v-8.3C473.7,353.3,473.3,352.2,472.5,351.4"/>
	</g>
</g>
<rect x="31.6" y="195.6" class="st0" width="3.5" height="131.3"/>
<g>
	<g>
		<path class="st0" d="M-49.9,221.9c0-0.3-0.4-0.6-0.6-0.4C-50.5,221.8-50.2,221.8-49.9,221.9 M-50.9,219.9c0-0.2-0.5-0.3-0.7-0.2
			C-52.5,219.9-50.8,220.7-50.9,219.9 M-48.7,234c0.2-0.2-0.3-0.6-0.5-0.4C-49,233.8-48.9,234-48.7,234 M-48.6,221.1
			c0-0.4-0.9-0.4-1,0C-49.4,221.4-48.6,221.5-48.6,221.1 M-18.8,277.1c0.1-0.4,0.4-0.6,0.4-1.1c-0.4-0.2-0.7,0.3-0.9,0.5
			c0,0.2,0,0.3,0,0.5C-19.3,277.1-19,277.2-18.8,277.1 M-37.4,229.1c0.4,0.3,0.7,1.1,1.4,0.7c0-0.2,0-0.4,0.1-0.6
			c-0.3-0.7-0.7-1.4-1.7-1.4c-0.1,0-0.1,0.2-0.2,0.2c-0.2,0-0.2-0.1-0.3-0.1C-38.8,228.3-38.1,229.2-37.4,229.1 M-19.7,270.3
			c-0.1-0.5-0.5-0.1-0.8-0.1C-20.9,270.7-19.9,270.5-19.7,270.3 M-52,229.5c0-0.2-0.1-0.3-0.1-0.4c-0.1-0.1-0.3-0.1-0.4,0
			C-52.6,229.4-52.4,229.6-52,229.5 M-30,279.8c-0.3-0.3-0.7-0.1-0.6,0.4c0.1,0.1,0.2,0.2,0.3,0.2C-30.2,280.2-30,280.1-30,279.8
			 M-49.3,234c-0.1-0.1-0.1-0.2-0.2-0.3c-0.1,0.1-0.3,0-0.4,0.2c-0.1,0.6,0.9,0.8,0.9,0.3C-48.9,234.1-49.1,234-49.3,234
			 M-48.6,234.4c-0.6,0.1-0.3,0.8,0.2,0.7C-48.1,235-48.3,234.3-48.6,234.4 M-53.3,229.4c-0.1,0-0.2,0.1-0.2,0.2
			c0,0.2,0.3,0.2,0.5,0.4c0.2,0.2,0.3,0.5,0.5,0.1C-52.7,229.7-53,229.6-53.3,229.4 M-49.6,233.6c0-0.2-0.2-0.2-0.1-0.4
			c-0.3-0.1-0.5-0.2-0.5,0.1C-50.2,233.4-49.9,233.7-49.6,233.6C-49.6,233.6-49.6,233.6-49.6,233.6 M-52.2,230.6
			c-0.2-0.3-0.5,0.1-0.1,0.1C-52.3,230.7-52.3,230.7-52.2,230.6 M-52.2,230.8c-0.2,0.1-0.1,0.2-0.2,0.5c0,0.3,0.7,0.4,0.7,0.1
			C-51.6,231.2-52,230.8-52.2,230.8 M-17.2,275.2c0.2,0,0.3-0.1,0.2-0.3C-17.2,274.7-17.4,275-17.2,275.2
			C-17.2,275.2-17.2,275.2-17.2,275.2 M-50,230.3c0.1-0.4-0.2-0.5-0.4-0.7c-0.1-0.1-0.2-0.2-0.3-0.3c-0.1-0.1-0.3-0.1-0.5-0.1
			c-0.2-0.1-0.4-0.3-0.5-0.1c-0.1,0.3,0.2,0.4,0.3,0.7C-51,230-50.6,230.7-50,230.3 M-41.7,251.3c-0.1,0-0.2,0.1-0.3,0.2
			c-0.2,0.1-0.4,0-0.4,0.2c0.1,0.3,0.7,0.5,1,0.4c0.1,0,0.4-0.3,0.4-0.4C-40.9,251.3-41.4,251.2-41.7,251.3 M-42.2,251.1
			c0.1-0.4-0.5-0.4-0.4-0.1C-42.6,251.2-42.3,251.3-42.2,251.1 M-38.9,249.9c-0.1-0.1-0.2-0.3-0.4-0.3c-0.1-0.2-0.2-0.4-0.2-0.6
			c-0.4,0.1-0.2,0.7-0.3,1.1c-0.3,0.2-0.9,0.1-1,0.5c-0.2,0.7,0.6,0.9,0.8,0.5c0.2,0.3,0.5,0.1,0.8,0.1c0.2,0,0.4,0.1,0.5-0.1
			c-0.2-0.1-0.6-0.3-0.4-0.5c0.4,0,0.8,0,0.7-0.5C-38.4,249.9-38.7,249.9-38.9,249.9 M-47.6,234.8c-0.3-0.3-0.5,0-0.4,0.4
			c0.1,0.2,0.6,0.2,0.5-0.2c-0.1,0-0.1,0-0.2-0.1C-47.7,234.9-47.6,234.9-47.6,234.8 M-39.5,248.8c0.2-0.1,0.2-0.4,0.4-0.5
			c0.1,0.1,0.1,0.3,0.1,0.5c0.2,0,0.3-0.2,0.5-0.2c0.1-0.3-0.1-0.4-0.2-0.5c-0.1,0-0.2,0-0.3,0c0-0.1-0.1-0.1-0.1-0.2
			C-39.7,248.1-40.3,248.7-39.5,248.8 M-30.6,280.7c-0.4-0.1-0.8,0.2-0.5,0.5C-30.8,281.5-30.3,281.1-30.6,280.7 M-37,284.6
			c-0.1-0.1-0.3-0.2-0.4-0.3C-37.7,284.5-37.2,284.9-37,284.6 M-36.3,249c0-0.1,0-0.1,0-0.2c-0.1-0.1-0.3,0-0.3,0.1
			C-36.6,249.1-36.4,249.1-36.3,249 M-33.1,259.9c-0.2,0-0.5,0.2-0.4,0.4C-33.1,260.6-32.7,260-33.1,259.9 M-38.4,248.8
			c-0.2,0-0.4,0.6-0.7,0.6c0,0.2,0.1,0.3,0.1,0.3c0.1-0.1,0.3,0,0.4-0.1C-38.3,249.5-38,248.7-38.4,248.8 M-16.6,274.2
			c-0.2-0.1-0.4,0-0.4,0.2c0.1,0.1,0.2,0.1,0.3,0.1C-16.6,274.5-16.5,274.3-16.6,274.2 M-33.2,266.2c0-0.3-0.1-0.4-0.2-0.6
			c-0.5-0.4-1.3,0-1.6,0.3C-34.8,266.6-33.7,266.6-33.2,266.2 M-39.3,275.9c0.3,0,0.5-0.5,0.4-0.9c-0.2-0.1-0.4-0.1-0.5,0
			C-39.8,275.3-39.7,275.9-39.3,275.9 M-38,246.4c-0.1-0.2-0.5-0.1-0.5,0.1C-38.4,246.6-37.9,246.7-38,246.4 M-38,250.3
			c-0.1,0-0.1,0.1-0.1,0.2c0.3,0.1,0.7,0.1,1,0.1c0.1-0.1,0.1-0.3,0-0.3C-37.3,250.5-37.7,250.4-38,250.3 M-39.3,247.7
			c0.1,0.2,0.6,0.3,0.8,0.5c0.2,0.2,0.1,0.4,0.3,0.6c0.3,0.1,0.7,0.1,0.7-0.2c0.1-0.4-0.3-0.3-0.3-0.6c0-0.1,0.1-0.3,0.1-0.4
			c0-0.3-0.1-0.6-0.4-0.6C-38.6,246.8-39.4,247.3-39.3,247.7 M-36.7,249c0-0.2-0.3-0.3-0.5-0.2C-37.2,249-36.9,249.1-36.7,249
			 M-37.4,246.9c0-0.1,0-0.2,0-0.2c-0.3-0.2-0.5,0.2-0.3,0.3C-37.5,247-37.4,247-37.4,246.9 M-50.6,232.7c0.1,0,0.1,0.1,0.3,0.1
			c0-0.1,0.1-0.2,0-0.2C-50.4,232.6-50.5,232.6-50.6,232.7 M-108.9,234.8c0.1,0,0.2-0.1,0.2-0.1c1.9-1.7,4.2-3,6.1-4.6
			c0.7-0.6,1.2-1.2,1.8-1.9c2.3-2.7,4.2-5.8,6.5-8.4c0,0,0,0,0,0c-1.7,0.7-3.4,1.6-5,2.6c-1.6,0.9-3.1,1.9-4.4,3.1
			c-1.3,1.2-2.3,2.7-3.1,4.3C-107.6,231.2-108.3,232.9-108.9,234.8 M-114.4,247.5c1.2-1.8,2.5-3.4,4.2-4.8c0.8-0.7,1.7-1.3,2.5-2
			c2.5-2,4.8-4.3,6.7-6.9c1.3-1.7,2.5-3.6,3.3-5.8c-0.1,0-0.2,0.1-0.2,0.1c-0.5,0.5-1,1-1.5,1.4c-1.7,1.6-3.7,2.8-5.8,4.1
			c-2.7,1.7-4.7,4.1-6.5,6.6c0.1-1.6,0.9-2.9,1.3-4.4c0.4-1.5,0.7-3.1,1-4.8c0.6-3.2,1.7-6,3.2-8.3c0,0,0,0,0,0
			c-3.5,2.3-5.9,5.6-7.4,9.7c-0.8,2.1-1.4,4.4-1.2,7.2C-114.5,242.1-114.1,244.7-114.4,247.5 M-117.6,263.9c0.2-2.8,1.4-4.7,2.7-6.6
			c1.3-1.8,2.7-3.5,4-5.3c1.3-1.8,2.3-3.9,3.4-5.9c1.1-2,2.1-4.1,3.1-6.2c-0.1-0.1-0.2,0.1-0.2,0.1c-0.1,0.1-0.2,0.1-0.2,0.2
			c-2.9,2.8-6.1,5.4-8.9,8.4c-1.8,1.9-2.4,4.6-3.3,7.5c-0.1-1.6,0.4-3,0.7-4.5c0.3-1.3,0.5-2.7,0.6-4.1c0-1.5-0.2-2.9-0.3-4.4
			c-0.5-4-0.5-8.4,1-11.5c0,0,0,0,0,0c-0.9,0.9-1.6,1.9-2.3,3c-1.9,3.2-3.3,7.3-3.4,12c-0.1,3.3,0.6,6.2,1.3,8.9
			C-119,258.4-118.3,261-117.6,263.9 M-58,265.7c0.4-0.5-0.3-0.7-0.2-1.1c0.1,0,0.3,0,0.4,0c0.1-0.4-0.7-0.4-0.6,0.1
			C-59.1,264.7-58.6,265.9-58,265.7 M-56.7,261.6c0.1,0,0.1-0.1,0.2-0.1c0-0.1,0-0.2-0.1-0.3C-56.8,261.2-56.9,261.6-56.7,261.6
			 M-94.9,233.2c0.9-1,1.8-2,2.7-2.8c1.9,1.8,3.7,3.6,5.6,5.4c-5.8,6.1-10.3,13.5-10.8,24.9h-7.9c0.3-10.3,3.6-18,8.1-24.3
			C-96.6,235.2-95.8,234.2-94.9,233.2 M-65.4,217.3c0.8-0.1,1.6-0.2,2.5-0.3c0.8-0.1,1.7,0,2.6-0.1c0.1,0,0.2-0.1,0.3,0.1
			c0.1,0.5,0,1.3,0,1.7v5.9c-11.6,0.4-19.3,4.6-25.6,10.2c-1-0.9-1.9-1.8-2.8-2.7c-0.9-0.9-1.9-1.8-2.8-2.7
			C-84.7,223.5-76.6,218.8-65.4,217.3 M-62.7,267.3c0,0,0.2,0,0.2,0c0,0,0,0.1-0.1,0.1C-62.7,267.4-62.8,267.4-62.7,267.3
			 M-59.4,254.1c0.1,0.1,0.5-0.1,0.6,0c0,0.1-0.1,0.1-0.1,0.2c-0.3,0-0.6-0.1-0.8-0.2c-0.4,0-0.6,0.1-0.9,0.3c-0.1,0.8,0.5,1,1,1.3
			c0.1,0.4,0.2,0.6,0.6,0.5c0.1,0,0.2-0.1,0.2-0.1c0.3,0,0.5,0.2,0.8,0.2c0.2,0,0.3-0.1,0.5,0c0.1,0.4,0.4,0.5,0.7,0.8
			c0.3,0.3,0.4,0.7,0.8,1c0.3,0,0.6,0,0.8-0.1c-0.2,0.4-0.4,1.3,0.2,1.6c0,0.1,0,0.3-0.1,0.4c-0.1,0.1-0.4,0.1-0.5,0.3
			c0.1,0.4-0.1,0.6-0.4,0.8c0.1,0.2,0.2,0.4,0.3,0.4c0.1,0,0.1-0.1,0.2-0.1c0.5,0.1,0.5,1.3,0.9,1.4c0.3,0,0.2-0.3,0.5-0.4
			c0.1,0.2-0.1,0.2-0.1,0.4c-0.1,0.1-0.4,0.1-0.4,0.4c0.2,0.2,0.5,0.1,0.8,0c0.2,0,0.4-0.1,0.6-0.2c0.2-0.1,0.3-0.3,0.5-0.2
			c0.1,0.2-0.2,0.2-0.2,0.4c0,0.2,0.2,0.2,0.4,0.3c-0.3,0.1-0.8-0.1-1.2-0.1c-0.1,0-0.2,0.1-0.3,0.1c-0.2,0-0.6-0.1-0.7,0.1
			c-0.1,0.5,0.6,0.7,0.8,1c-0.2,0.3-0.2,0.7-0.3,1.2c-0.4,0.2-0.3,0.8-0.6,1c-0.3-0.1-0.8,0.1-1.2,0c-0.3,0-0.5-0.2-0.8-0.1
			c-0.4,0.1-0.4,0.5-0.7,0.9c-0.1,0.1-0.3,0.4-0.4,0.6c-0.1,0.2-0.1,0.6-0.1,0.8c-0.1,0.4-0.5,0.8-0.7,1.1c-2.7,0.2-4.7-0.6-6.2-1.7
			c0.1-0.1,0.3-0.2,0.5-0.2c0.1-0.1,0.2-0.2,0.4-0.2c0.2,0,0.5,0.1,0.8,0.1c0.1,0,0.3-0.2,0.4-0.2c0.2,0,0.3,0.1,0.5,0.1
			c0.4,0,0.7-0.1,0.9-0.4c0.3,0,0.5-0.5,0.1-0.5c0.1-0.1,0.4-0.1,0.5-0.2c0-0.2,0.2-0.3,0.2-0.5c0-0.1-0.2-0.1-0.2-0.3
			c0.3-0.1,0.4-0.3,0.5-0.5c-0.1-0.5,0.6-0.7,0.4-1.2c-0.1-0.1-0.3,0-0.4-0.1c0-0.3,0.4-0.2,0.4-0.4c0-0.5-1-0.7-1.5-0.8
			c-0.2,0.1-0.4,0-0.6,0c-0.2,0-0.6,0.2-0.9,0.2c-0.4,0-0.9-0.1-0.9,0.4c0,0.1,0.1,0.2,0.1,0.3c0,0.2-0.1,0.3-0.1,0.6
			c-0.1,0.4,0.1,0.8-0.2,0.9c-0.2-0.1,0-0.3,0-0.5c-0.2,0.1-0.7,0.2-0.9,0.3c-0.1,0.7-0.6,0.9-0.8,1.3c0,0.1-0.1-0.1-0.1,0
			c-0.1,0.1-0.2,0.2-0.3,0.3c-0.3-0.4-0.6-0.7-0.8-1.2c0.1-0.2,0.2-0.2,0.4-0.2c0.2-0.1,0.3-0.4,0.6-0.3c0,0.2-0.1,0.2-0.1,0.3
			c0.2,0.1,0.6,0.2,0.7,0.1c0.2-0.2,0.2-0.8,0.3-1.1c0.2-0.5,0.6-0.6,0.6-0.9c0.1-0.2,0.3-0.3,0.4-0.5c-0.1-0.2-0.4-0.1-0.5-0.3
			c0.1-0.4-0.1-1,0.2-1.3c-0.1-0.2-0.3-0.3-0.4-0.4c-0.1,0-0.1,0.2-0.3,0.1c-0.1,0.1-0.2,0.5-0.1,0.6c0.2,0.1,0.5-0.1,0.6,0.1
			c-0.1,0.2-0.5,0.2-0.8,0.3c-0.1,0.3-0.2,0.6,0,0.9c-0.2,0.3-0.5,0.7-0.8,0.7c0,0,0-0.1,0-0.1c-0.1-0.2,0.2-0.1,0.2-0.2
			c-0.2-0.2-0.4-0.5-0.9-0.4c-0.1,0.2-0.2,0.3-0.5,0.3c-0.1,0-0.2-0.1-0.2-0.1c-0.5,0-1.1,0.3-1.7,0.3c0-0.1,0.1-0.1,0.1-0.2
			c-0.3-0.2-0.6,0-0.6,0.3c-0.2,0-0.6,0-0.7-0.1c0.1-0.4,0.7-0.3,0.9-0.6c-0.2-0.8,0.4-1.3,0.7-1.8c0.3-0.1,0.5-0.1,0.7,0
			c0.3,0.1,0.4,0.5,0.7,0.4c0.1,0,0.1-0.2,0.2-0.3c0-0.1-0.2-0.2-0.1-0.3c0.3,0.1,0.6,0.4,0.5,0.8c-0.1,0-0.1,0.1-0.2,0
			c-0.1,0.3-0.4,0.5-0.4,0.9c0.2,0.1,0.4,0.1,0.6,0.1c0.3-0.3-0.1-0.7,0-1c0.4,0.1,0.2,0.7,0.4,1c0.2,0.1,0.6,0.1,0.9,0.1
			c0.1-0.2,0-0.5,0-0.7c0-0.1,0.1-0.1,0.2-0.2c0.2-0.5-0.1-1,0.2-1.5c0.1,0,0.2,0.1,0.2,0.1c0.6-0.2,1.3-0.2,1.3-0.8
			c-0.3-0.1-0.6-0.4-1-0.2c-0.2,0.1-0.2,0.3-0.4,0.4c-0.2-0.5,0.6-0.9,0.8-1.3c0.9,0.2,0.4-0.9,1-1.1c0.2-0.1,0.4,0,0.6-0.1
			c0.2-0.1,0.4-0.2,0.7-0.3c0.3-0.1,0.5-0.1,0.7-0.2c0.1-0.1,0.3-0.3,0.5-0.5c0.3-0.3,0.6-0.5,0.2-0.9c0.1-0.4-0.1-0.7-0.1-1.2
			c0.1-0.1,0.5-0.1,0.6-0.3c-0.1-0.5-0.8-0.1-0.8,0.2c-0.3-0.1-0.1-0.6,0-0.7c-0.1-0.1-0.3-0.2-0.4-0.3c0.7-0.1,1.3-0.2,2.1-0.2
			C-59.6,253.3-59.5,253.7-59.4,254.1 M-58.7,244.1c5,0.3,8.5,2.1,11.3,4.6c-0.2,0.2-0.4,0.6-0.8,0.5c-0.1-0.2,0.2-0.2,0.1-0.4
			c-0.7,0-1,0.5-1.4,0.9c-0.5,0.1-0.8,0.7-0.1,0.7c0.1,0,0.1,0.2,0.2,0.2c0.1,0.1-0.2,0.2-0.2,0.3c-0.1-0.1-0.2-0.4-0.4-0.4
			c-0.2,0-0.2,0.2-0.4,0.1c-0.1,0,0-0.3-0.2-0.4c-0.3,0.1-0.5-0.1-0.8,0c-0.2,0.4,0.2,0.8,0.1,1.2c0.2,0.3,0.5,0,0.7-0.1
			c0.3-0.1,0.5,0,0.6-0.2c0-0.1,0.1-0.1,0,0c-0.4,0.3-0.7,0.8-1.2,1.2c-0.2,0.2-0.5,0.3-0.7,0.4c-0.1,0.1-0.2,0.3-0.3,0.4
			c-0.2,0.2-0.5,0.2-0.5,0.6c-0.3,0.3-0.6,0.8-1.2,0.6c-0.1-0.1-0.1-0.3-0.2-0.4c-0.1-0.1-0.3-0.1-0.4-0.2c-0.1-0.1-0.2-0.2-0.3-0.3
			c-0.2-0.1-0.5-0.2-0.7-0.2c-0.3,0-0.7,0.5-0.9,0.5c-0.2,0-0.3-0.1-0.6-0.1c0-0.2,0.1-0.2,0.2-0.3c0.2-0.1,0.3-0.3,0.5-0.4
			c0.4-0.2,1.1-0.3,1.3-0.7c0.1-0.1,0.2-0.7,0.2-1c0-0.2-0.3-0.4-0.5-0.3c-0.2,0-0.3,0.3-0.5,0.4c-0.1,0.1-0.2,0.1-0.3,0.1
			c-0.4,0.2-0.8,0.6-0.9,0.9c0,0.1,0,0.4-0.2,0.4c-0.1-0.1,0.1-0.4,0.1-0.6c-0.6-0.2-1.3-0.3-2-0.4V244.1z M-58.7,235.1
			C-58.7,235.1-58.7,235-58.7,235.1c8.1,0.2,13.5,3.2,17.9,7.1c-1.9,1.8-3.7,3.7-5.7,5.5c-3.1-2.7-6.8-4.7-12.3-5V235.1z
			 M-42.9,238.7c-0.7-0.4-1.4-0.9-2.2-1.3c0.3,0,0.6,0.1,0.9,0.1c0.2,0.1,0.2,0.4,0.5,0.4c0.1,0,0-0.2,0.1-0.2
			c0.2,0.1,0.2,0.3,0.3,0.5C-43.2,238.3-43,238.5-42.9,238.7 M-58.7,230.1c0.1,0.1,0.1-0.1,0.3-0.2c0.3-0.1,0.8,0,0.6-0.5
			c-0.1-0.2-0.3-0.2-0.6-0.2c-0.1-0.1-0.2-0.2-0.3-0.1V226c6.5,0.2,11.6,1.7,15.9,4c-0.3,0.1-0.5,0.2-0.8,0.3c0,0.2-0.2,0.3-0.2,0.5
			h-0.2c-0.2,0.2-0.1,0.5,0.1,0.7c0.1,0,0.2-0.1,0.2-0.2c0.1,0.2,0.3,0.3,0.5,0.4c0.1,0.1,0.2,0.3,0.3,0.3c0.1,0.1,0.3,0.1,0.4,0.2
			c0.1,0.1,0.1,0.3,0.2,0.4c0,0.1,0.1,0.1,0.2,0.2c0.2,0.5,0.1,1,0.3,1.4c0.2,0.3,0.7,0.3,0.8,0.6c0.1,0.2,0,0.5,0,0.7
			c0,0.1-0.1,0.2-0.1,0.3c0,0.2,0.1,0.5,0.2,0.6c0.1,0.1,0.2,0.2,0.3,0.3c0.2,0.4-0.1,1.2,0.5,1.3c0.2,0,0.5-0.1,0.7-0.2
			c0.3-0.2,0.6-0.6,1.1-0.5c0.3,0,0.7,0.5,0.9,0.7c0.2,0.2,0.2,0.3,0.3,0.6c-0.3,0.4-0.7,0.7-1,1.1c-0.4,0.4-0.7,0.7-1.1,1
			c-0.1-0.1-0.1-0.3-0.1-0.5c0.3-0.1,0.5,0,0.6-0.2c0-0.2-0.2-0.4-0.3-0.4c-0.2,0-0.2,0.2-0.3,0.4c-0.1-0.3-0.3-0.6-0.4-0.8
			c0.1-0.5-0.3-0.9-0.7-1.2c-0.1-0.1-0.4-0.3-0.5-0.3c-0.2,0-0.3,0.2-0.5,0.2c-0.2,0-0.6-0.7-0.7-0.8c0-0.1,0-0.2-0.1-0.2
			c-0.2-0.2-0.5-0.6-0.8-0.9c-0.1-0.1-0.2-0.2-0.4-0.3c-0.1-0.1-0.2-0.3-0.3-0.3c-0.2,0-0.3,0.1-0.5,0.2c0.2,0.7,0.9,1.1,1,1.8
			c-0.2,0-0.3-0.1-0.5,0c-0.1-0.1-0.1-0.3-0.2-0.5c-0.1-0.2-0.4-0.3-0.5-0.4c0-0.1,0.1-0.1,0.1-0.2c-0.1-0.2-0.2-0.3-0.4-0.4
			c-0.2,0.1-0.5,0.2-0.5,0.4c0,0.2,0.3,0.1,0.5,0.3c-0.3,0.2-1.2-0.4-1.1,0.4c-0.3,0-0.3-0.4-0.5-0.5c-0.1-0.1-0.2,0.1-0.3,0.2
			c-3.3-1.6-7.2-2.8-12.1-3V230.1z M-58.7,223.9c0.6,0.1,1-0.1,1.4,0.1c0.2,0.1,0.4,0.5,0.6,0.5c0.2,0,0.4-0.1,0.5-0.1
			c0.2,0,0.2,0.2,0.3,0.4c-0.9-0.1-1.8-0.2-2.8-0.2V223.9z M-58.7,216.9c7.1,0.2,12.9,1.7,18,3.9c5,2.2,9.4,5.1,13.1,8.6
			c-1.7,1.6-3.3,3.2-5,4.8c-0.2-0.1-0.2-0.3-0.4-0.4c-0.1-0.1-0.3,0-0.5-0.1c-0.4-0.2-0.4-0.9-0.6-1.5c-0.5-0.3-0.7-0.8-1.1-1.2
			c-0.1-0.1-0.2-0.2-0.2-0.3c-0.3-0.3-0.8-0.3-1.2-0.5c-0.5-0.2-0.6-1-1.1-1c-0.2,0-0.3,0.1-0.5,0.1c-0.6,0-1.1-0.6-1.7-0.5
			c-0.2,0-0.3,0.1-0.5,0.2c-0.2,0.1-0.5,0-0.8,0.2c-3.8-2-8.1-3.6-13.2-4.3c-0.3-0.4-1.3-0.6-0.9-1.4c-0.2-0.2-0.5-0.3-0.5-0.7
			c0.1,0.2,0.3,0.2,0.7,0.3c0.2,0.1,0.4,0.2,0.6,0.3c0.3,0,0.6-0.2,0.9-0.3c0.2-0.1,0.4-0.1,0.6-0.1c0.2,0,0.4-0.2,0.5-0.2
			c0.3,0,0.6,0.1,0.9,0.1c0.3,0,0.6-0.2,0.6-0.4c0.3,0.1,0.7,0,0.9-0.1c-0.1-0.3-0.4-0.5-0.7-0.7c-0.7-0.2-1.2-0.5-2-0.3
			c-0.2,0.1-0.3,0.2-0.5,0.3c-0.6,0.3-1.4,0.1-1.7,0.7c-0.4-0.2-0.7,0-0.8,0.3c-0.1-0.2-0.3-0.4-0.7-0.3c-0.2,0-0.4,0.2-0.7,0.2
			c-0.3,0.1-0.6,0.1-0.7,0.3c-0.5,0-0.6,0.3-0.9,0.3V216.9z M-17.5,243c2.3,4.9,3.9,10.6,4.1,17.6h-8c-0.2-5.2-1.2-9.5-2.9-13.3
			c-0.1-0.2-0.3-0.6-0.3-0.7c0-0.1,0.2-0.3,0.3-0.5c0.1-0.5-0.2-0.8-0.4-1.1c-0.1-0.2-0.2-0.5-0.3-0.7c-0.1-0.2-0.4-0.4-0.6-0.6
			c-0.2-0.2-0.4-0.4-0.5-0.6c-0.1-0.1,0-0.3-0.1-0.4c0-0.1-0.2-0.2-0.2-0.3c-0.1-0.1-0.1-0.3-0.2-0.3c-0.1-0.2-0.4-0.3-0.5-0.5
			c-0.1-0.2-0.1-0.4-0.2-0.5c-0.1-0.1-0.4-0.1-0.6-0.3c-0.1-0.1-0.2-0.4-0.4-0.6c-0.2-0.2-0.5-0.3-0.6-0.4c-0.1-0.2-0.2-0.4-0.3-0.6
			c-0.3-0.4-0.7-0.7-1.1-1c-0.2-0.2-0.5-0.3-0.7-0.5c-0.1-0.2-0.2-0.4-0.4-0.6c-0.2-0.2-0.4-0.4-0.5-0.5c-0.1-0.2-0.1-0.6-0.1-0.7
			c0-0.2,0.4-0.5,0.7-0.7c0.7-0.7,1.4-1.3,2.1-2c1-1,1.9-1.9,2.8-2.7C-22.9,233.9-19.8,238.1-17.5,243 M-17.4,279.4
			c-2.3,5-5.3,9.2-8.9,12.8c-1.9-1.8-3.8-3.6-5.6-5.5c5.7-6.1,10.1-13.6,10.5-24.9c0,0,0-0.1,0-0.1h7.9
			C-13.6,268.8-15.2,274.5-17.4,279.4 M-40.5,302c-5.1,2.3-11,3.8-18.2,4v-7.7c3.7-0.1,6.9-0.7,9.9-1.5c0.2,0.1,0.5,0.3,0.7,0.5
			c0.1,0,0.2,0,0.3,0c0.3,0.3,0.9,0.4,1.4,0.4c0.2-0.2,0.5-0.2,0.7-0.4c0.1-0.1,0.1-0.2,0.2-0.3c0.3-0.2,0.8-0.2,1.2-0.4
			c0.2-0.1,0.3-0.4,0.6-0.5c0.3-0.2,0.5-0.2,0.8-0.3c0.8-1,2.4-1.3,3.1-2.3c0-0.2,0.1-0.4,0.1-0.6c2.4-1.5,4.7-3.2,6.7-5.2
			c1.9,1.8,3.7,3.6,5.6,5.4C-31,296.8-35.4,299.8-40.5,302 M-55.8,289.1c0.3,0,0.7-0.2,0.9-0.1c0.2,0,0.5,0.4,0.8,0.6
			c0.3,0.2,0.5,0.3,0.8,0.5c0,0.4,0.4,0.5,0.5,0.8c-0.1,0.3,0.3,0.5,0.3,0.7c0.1,0.4-0.4,0.8-0.4,1.3c0,0.2,0.2,0.6,0.3,0.8
			c0.1,0.1,0.3,0.1,0.4,0.3c0.1,0.1,0,0.2,0.1,0.3c0.4,0.5,1.3,0.3,1.5,1c0.2,0.1,0.5,0.4,0.6,0.6c-2.6,0.7-5.4,1.1-8.7,1.2v-7.7
			C-57.6,289.3-56.7,289.2-55.8,289.1 M-55.7,287.5c0,0.1,0.1,0.1,0.1,0.2c-0.9,0.2-2,0.2-3,0.3v-0.6c0.4-0.1,0.8-0.1,1.2-0.1
			c0.2,0,0.4,0.2,0.6,0.2c0.3,0,0.5-0.2,0.7-0.1c0,0.1-0.1,0.1-0.2,0.3C-56.1,287.8-55.8,287.6-55.7,287.5 M-48.3,277.4
			c0-0.2-0.3-0.2-0.3-0.5c0.1,0,0.2-0.1,0.2-0.2c0.1,0.3,0.2,0.5,0.4,0.7c0.6,0.1,1.2,0.2,1.7,0.4c0.1,0.1,0.2,0.2,0.3,0.2
			c0.2,0,0.4,0,0.7,0c0.4,0,0.8,0.2,1.1,0.3c0.4,0.1,0.7,0.3,1.1,0.4c0.4,0,0.7-0.1,1.1-0.2c0.1-0.2,0.1-0.4,0.1-0.6
			c0.2-0.2,0.4-0.4,0.6-0.7c-0.1-0.3,0.2-0.6,0.3-0.9c0.1-0.3,0-0.8,0.2-1.3c0.1-0.3,0.4-0.5,0.4-0.7c0-0.2-0.1-0.3-0.1-0.5
			c0-0.1,0.1-0.2,0.1-0.3c0-0.2,0-0.5,0-0.6c-0.1-0.3-0.5-0.4-0.4-0.8c-0.2-0.4-0.7-0.2-1.1-0.1c-0.1,0-0.5,0.1-0.6,0.2
			c-0.1,0.1,0,0.1-0.1,0.3c-0.1,0.1-0.2,0.2-0.2,0.3c0,0.1,0,0.2,0,0.3c-0.1,0.2-0.3,0.4-0.4,0.4c-0.2,0-0.4-0.1-0.5-0.1
			c-0.2,0-0.2,0.1-0.4,0.3c-0.5,0-0.9,0-1.1-0.3c0.1-0.1,0.2-0.2,0.4-0.3c0.6,0,1.4,0,1.6-0.4c0.1-0.3,0.2-0.7,0.5-0.8
			c0.2-0.1,0.5,0,0.7-0.1c0.7-0.3,0.7-1.1,1.2-1.6c0-0.1,0-0.2,0-0.3c0.4-0.3,0.6-0.7,0.8-1.3c0-0.2,0-0.4,0.2-0.5
			c0.2,0.2,0,0.7,0.2,0.9c0.4,0.1,0.9,0.1,1-0.2c0.1-0.2,0.1-0.4,0.2-0.5c0.3-0.1,0.5,0.2,0.7,0.2c0.6,0.1,1-0.2,1.4-0.4
			c0.8-0.1,1.4-0.4,2.2-0.5c0-0.1,0.1-0.1,0.2-0.2c-0.1-0.3-0.2-0.6-0.4-0.8c-0.1-0.2-0.4-0.3-0.6-0.5c-0.1-0.1-0.1-0.2-0.2-0.2
			c-0.1,0-0.2-0.1-0.3-0.1c-0.1-0.1-0.2-0.2-0.3-0.3c-0.1-0.1-0.3,0-0.4-0.1c-0.3-0.1-0.2-0.6-0.4-1c-0.1-0.2-0.4-0.4-0.5-0.6
			c-0.1-0.2,0-0.3-0.1-0.5c-0.1-0.2-0.2-0.3-0.3-0.4c-0.1-0.2-0.4-0.3-0.5-0.6c0-0.2,0.1-0.5,0.1-0.7h5.7c-0.1,3.9-1,7.2-2.2,10
			c-1.3,2.8-2.9,5.3-4.9,7.3c-0.1-1-0.3-1.9-0.8-2.6c-0.6-0.2-0.8,0.5-1,0.8c-0.2,0.3-0.5,0.6-0.6,0.8c0,0.2,0,0.5-0.2,0.7
			c-0.1,0.1-0.4,0-0.6,0c-0.5,0-1,0.3-1.4,0.3c-0.5,0-0.9-0.3-1.3-0.4c-0.2-0.1-0.5,0-0.7-0.1c-0.4-0.1-0.8-0.3-1.2-0.4
			c-0.2-0.1-0.4,0-0.5-0.1c-0.1,0-0.2-0.2-0.3-0.2c-0.2-0.1-0.5-0.1-0.6-0.2c-0.3,0-0.7,0-0.9-0.1
			C-49.2,277.1-48.6,277.4-48.3,277.4 M-38.2,245.7c0,0.2,0.1,0.3,0.2,0.3c0.2,0,0.1-0.1,0.3-0.1c0.4,0.3,0.7,0.7,1,1.1
			c0.2,0.2,0.3,0.4,0.4,0.7c0.2,0.4,0.6,0.8,0.7,1.3c-0.1,0.2-0.4,0.1-0.6,0.2c-0.2,0.1-0.1,0.4-0.2,0.7c-0.1,0.2-0.2,0.2-0.3,0.3
			c-0.1,0.4,0.7,0.7,1.1,0.7c0.1,0.1,0.2,0.2,0.4,0.2c0.2,0.4,0.7,0.5,1,0.8c0.4,0.5,0.6,1.6,0.9,2.3c0,0.1,0.1,0.2,0.1,0.2
			c0,0.2-0.2,0.3-0.2,0.4c-0.1,0.3,0.1,0.5,0.2,0.7c-0.1,0.2-0.3,0.2-0.4,0.4c-0.1,0.1,0,0.2-0.1,0.3c-0.1,0.2-0.4,0.4-0.4,0.7
			c-0.2,0.2-0.4,0.4-0.6,0.7c-0.3,0-0.7,0-0.9,0c-0.1-0.2,0.1-0.3,0.1-0.4c0-0.1,0-0.2,0-0.3c0.1-0.4,0.5-0.6,0.5-0.8
			c0-0.1-0.1-0.2-0.1-0.3c0-0.2,0.2-0.2,0.2-0.4c0-0.3-0.2-0.2-0.4-0.4c-0.2-0.1-0.2-0.3-0.3-0.4c-0.1-0.1-0.4-0.2-0.5-0.2
			c-0.3-0.1-0.6-0.2-0.9,0c-0.3,0.1-0.7,0.6-0.9,0.8c-0.2,0.3-0.2,0.5-0.5,0.5c-0.2,0-0.3-0.3-0.4-0.4c-0.2-0.2-0.4-0.3-0.5-0.4
			c0-0.1,0.2-0.3,0.3-0.3c0.1,0.2,0,0.5,0.2,0.6c0.4,0.1,0.9-0.1,0.8-0.4c-0.1-0.2-0.7-0.5-0.9-0.4c-0.2,0-0.1-0.3-0.3-0.3
			c-0.1-0.1-0.1,0-0.2,0c-0.1-0.2-0.3-0.3-0.3-0.7c-0.3-0.3-0.6-0.8-1.1-0.9c-0.3-0.1-0.6-0.1-0.9-0.2c-0.3-0.1-0.5-0.3-0.8-0.1
			c-0.3-0.6-0.7-1.1-1.1-1.7c0.1,0,0.3-0.1,0.4-0.2c0-0.3-0.6-0.1-0.7-0.4c-0.1,0-0.1,0-0.1,0.1c-0.4-0.4-0.8-0.9-1.2-1.3
			c1.8-1.8,3.7-3.6,5.6-5.4c0.3,0.2,0.7,0.8,1,1.1C-38.6,244.7-37.8,245.2-38.2,245.7 M-36.3,259.1c0.1-0.4,0.9-0.3,1.3-0.5
			c0.4,0,1,0,1.3-0.2c0.1-0.4,0.3-0.6,0.5-0.9c0.3-0.1,0.5-0.3,0.6-0.5c0.3,0.4-0.2,0.9-0.3,1.2c-0.1,0.3,0,0.5,0,0.8
			c0,0.2-0.1,0.5,0.1,0.6c0.2,0.1,0.3-0.1,0.5-0.1c0.1,0.4,0.1,0.8,0.1,1.2c-0.9-0.1-2,0.1-2.8,0c-0.1,0-0.1,0-0.2-0.1
			c-0.1,0-0.1,0.1-0.2,0.1c-0.1,0,0-0.2-0.2-0.1c-0.3,0.2-1,0.1-1.5,0.1c0.1-0.3,1-0.3,1-0.7C-36,259.7-36.4,259.5-36.3,259.1
			 M-39.5,288.8c0.1-0.3,0.3-0.4,0.5-0.6c0.2-0.2,0.3-0.4,0.4-0.7c0.2-0.3,0.6-0.6,0.8-1c0.1-0.3,0-0.5-0.2-0.7
			c-0.2-0.3-0.4-0.5-0.7-0.8c-0.1-0.1-0.2-0.3-0.4-0.4c-0.1-0.1-0.3,0-0.4-0.1c-0.1,0-0.3-0.2-0.4-0.2c-0.4-0.3-0.7-0.8-0.4-1.5
			c0-0.1,0.2-0.2,0.3-0.3c0.2-0.4,0-1,0.5-1.2c1.1,1,2.2,2.1,3.2,3.1c-0.1,0.1-0.1,0.2-0.2,0.3c0.1,0.4,0.3,0.8,0.5,1
			c0,0.8,0.8,1.1,1.5,1c0.2-0.1,0.3-0.3,0.4-0.2c0.1,0.2-0.4,0.5-0.5,0.6c-1.5,1.3-3.2,2.7-4.9,3.7c-0.1-0.3,0.3-0.4,0.4-0.7
			C-38.6,289.7-39.1,289.2-39.5,288.8 M-33.3,284.2c0-0.2-0.2-0.4-0.2-0.6c0-0.2,0.1-0.4,0-0.6c-0.1-0.2-0.3-0.3-0.4-0.4
			c-0.1-0.1,0-0.3,0-0.4c-0.1-0.2-0.4-0.2-0.6-0.3c-0.2-0.1-0.5-0.2-0.8-0.1c-0.2,0.1-0.1,0.6-0.3,0.7c0.1,0.3,0,0.5-0.1,0.8
			c-0.1,0-0.2-0.2-0.4-0.3c-0.8-0.8-1.7-1.7-2.6-2.5c4.2-4.6,7.5-10.2,7.8-18.6c0,0,0-0.1,0-0.1h7.9c-0.1,5.5-1.3,10-3.1,13.9
			c-1.7,3.8-4.1,7-6.8,9.9c-0.1,0.1-0.1,0.3-0.3,0.2c-0.2-0.2-0.1-0.3-0.1-0.6C-33.1,284.9-33.2,284.6-33.3,284.2 M-33.8,235.1
			c0-0.4,0.5-0.5,0.8-0.5C-33.1,234.9-33.3,235.1-33.8,235.1 M-35.2,242.5c0-0.2-0.3-0.2-0.2-0.3c0.3,0,0.6,0.1,1,0.1
			c0.2,0.2,0.1,0.4,0.2,0.7c0.1,0.2,0.2,0.3,0.3,0.4c0.1,0.1,0.2,0.3,0.3,0.4c0.3,0.2,0.8,0.2,1.2,0.5c0.1,0.1,0.1,0.2,0.2,0.2
			c0.1,0.1,0.3,0.1,0.4,0.2c0.2,0.1,0.2,0.3,0.3,0.3c0.2,0.1,0.4-0.1,0.6-0.1c0.2,0,0.6,0.4,0.8,0.6c0.1,0.1,0.1,0.2,0.2,0.3
			c0.1,0.1,0.3,0.2,0.4,0.2c0.2,0.2,0.4,0.6,0.7,0.9c0.1,0.1,0.3,0.3,0.4,0.4c0.2,0.2,0.4,0.3,0.4,0.4c0,0.1,0,0.3,0.1,0.4
			c0.1,0.2,0.6,0.2,0.9,0.1c0.2-0.1,0.3-0.2,0.5-0.3c0.1,0,0.2,0,0.2,0c0.3-0.1,0.5-0.5,0.7-0.5c1.6,3.7,2.8,7.9,2.9,13.1
			c-2.6,0.1-5.3,0-8,0c0-0.7-0.1-1.4-0.1-2.1c-0.1-0.5-0.2-1.1-0.2-1.4c0.1-0.4,0.4-0.7,0.5-1c0.1-0.5,0-0.9,0.2-1.3
			c-0.1-0.1-0.1-0.3-0.2-0.4c-1.1,0.3-1.4,1.5-1.6,2.5c-0.1,0-0.2,0-0.3,0c0.1-0.4,0.5-0.7,0.4-1.2c0.2-0.2,0.1-0.5,0.3-0.7
			c0-0.2,0-0.3,0.1-0.4c0.2-0.1,0.6-0.2,0.6-0.4c0-0.2-0.5-0.3-0.7-0.2c0-0.1-0.1-0.2-0.1-0.2c0.1,0,0.2,0,0.3-0.1
			c0.1-0.4-0.2-0.8-0.5-0.7c-0.1-0.3,0.1-0.6,0.1-0.9c0-0.1-0.1-0.2-0.2-0.4c0-0.1,0-0.2,0-0.3c0-0.1-0.2-0.2-0.2-0.4
			c-0.1-0.3-0.1-0.6-0.2-0.9c-0.1-0.3-0.4-0.5-0.6-0.7c-0.2,0-0.2,0-0.4,0c-0.1-0.3-0.3-0.5-0.4-0.8c0.1-0.1,0.1-0.3,0.2-0.4
			c0.2-0.2,0.4-0.1,0.4-0.4c0-0.5-0.7-0.2-1-0.1c0-0.2,0.4-0.4,0.3-0.8c0-0.1-0.2-0.3-0.3-0.3c-0.2,0-0.4,0.2-0.6,0.2
			c-0.2,0-0.4-0.5-0.5-0.6c-0.2-0.2-0.3-0.4-0.4-0.6c0.1-0.1,0.1-0.4,0-0.5c-0.1-0.1-0.3-0.1-0.5-0.2c-0.3-0.5-0.5-1.1-1.1-1.2
			c-0.1-0.2-0.2-0.3-0.3-0.4c0.1-0.7-0.4-0.9-0.6-1.3c0.4-0.5,1-0.9,1.4-1.5c0.1,0.1,0,0.4,0.1,0.6c0.3,0.1,0.3,0.5,0.6,0.7
			c0.2,0.2,0.7,0.1,0.7,0.4c-0.1,0.1-0.3,0-0.4,0.1C-35.9,242.5-35.5,242.7-35.2,242.5 M-46.4,250.2c-0.1-0.1-0.2-0.2-0.3-0.3
			c0.1-0.1,0.2-0.2,0.3-0.4c0.2,0.2,0.3,0.4,0.5,0.6c-0.2,0-0.3,0.4-0.4,0.6c0,0.3,0.3,0.4,0.7,0.4c0.1-0.1,0.1-0.3,0.2-0.4
			c0.2,0.2,0.4,0.4,0.5,0.6c-0.1,0-0.2,0-0.3,0.1c-0.2,0.2,0,0.5,0.2,0.5c0.1,0,0.2-0.1,0.4-0.1c0.1,0,0-0.1,0-0.2
			c0.3,0.3,0.4,0.6,0.7,0.9c0,0.1-0.2,0.1-0.3,0.1c-0.2,0.1-0.5,0.3-0.5,0.6c-0.2-0.1-0.6-0.3-0.8,0c0,0.5,0.2,0.9,0.5,1.3
			c-0.3,0.1-0.6-0.1-0.8-0.3c-0.1-0.1-0.3-0.1-0.3-0.2c0.3,0.1,0.3-0.1,0.5-0.2c-0.1-0.3-0.4-0.4-0.5-0.7c0.1-0.2,0.3-0.2,0.4-0.4
			c-0.1-0.4,0.4-0.5,0.4-0.8c0-0.3-0.3-0.5-0.6-0.7c-0.9-0.1-0.9,0.6-1.4,0.9c-0.3,0-0.5,0.1-0.8,0.1c-0.2-0.7,0.4-0.9,0.7-1.3
			c0.4-0.1,0.7,0,1-0.1C-46.3,250.7-46.5,250.4-46.4,250.2 M-47.8,270.6c0.1,0,0.1,0,0.2,0.1c0.2,0,0.3,0,0.5,0
			c0.4,0.1,0.7,0.3,0.9,0.6c-0.2,0.2-0.2,0.6-0.5,0.6c-0.2,0-0.3-0.3-0.4-0.5c-0.3-0.3-1.1,0-1.5-0.3c-0.1-0.3-0.4-0.4-0.3-0.8
			c0.1-0.2,0.6-0.6,0.7-0.1c0,0.2-0.2,0.2-0.2,0.3C-48.3,270.8-48.1,270.6-47.8,270.6 M-51.3,272.7c0-0.1,0.1-0.3,0.2-0.3
			C-50.5,272.2-51.3,273.2-51.3,272.7 M-52.4,274.4c0.2-0.3,0.5-0.6,0.2-1c0.1-0.1,0.1-0.4,0.4-0.4c0.1,0.1,0,0.2,0,0.2
			c0.2,0.4,0.8-0.1,0.9-0.3c0.4-0.1,1.1-0.3,1.4,0c0.1,0.1,0,0.2,0,0.3c-0.3,0.4-0.8,0.3-1.2,0.4c-0.2,0.1-0.5,0.3-0.7,0.4
			c-0.3,0.2-0.6,0.4-0.8,0.6c0,0.1,0.1,0.1,0.1,0.3c-0.1,0.2-0.3,0.3-0.6,0.3C-52.6,275-52.2,274.8-52.4,274.4 M-56.3,270.3
			c-0.1-0.4-0.1-1,0.1-1.5c0.7,0.1,0.1,1,0.4,1.4c0.1,0.2,0.4,0.1,0.6,0.3c0,0.3-0.5,0.1-0.6,0.4c0,0.2,0.3,0.3,0.2,0.6
			c0,0.1-0.3,0.2-0.4,0.3c-0.1,0.1-0.1,0.3-0.3,0.3c-0.2,0-0.5-0.2-0.8-0.2c0.1-0.3-0.3-0.4-0.3-0.8c-0.1-0.1-0.2-0.1-0.3-0.1
			c0-0.2,0-0.4,0.3-0.4c0.3,0.4,0.4,1.3,1.1,1.1c0.1-0.1,0.1-0.4,0.1-0.7c0-0.2,0.2-0.3,0.1-0.4C-56,270.5-56.2,270.4-56.3,270.3
			 M-59.6,278.4c-0.3,0-0.4,0.2-0.7,0.3c-0.4,0.1-0.8-0.2-1.2-0.1c-0.1,0-0.2,0.2-0.4,0.2c-4.4-0.6-7.5-2.4-10.1-4.6
			c1.8-1.8,3.7-3.6,5.4-5.4c1.9,1.6,4.7,3.1,8.6,2.5c-0.1,0.1-0.2,0.3-0.2,0.4c0.1,0.3,0.2,0.4,0.1,0.6c-0.1,0.2-0.3,0.2-0.3,0.3
			c0,0.1,0.1,0.2,0.1,0.3c-0.2,0-0.3-0.1-0.5,0c-0.1-0.2-0.2-0.4-0.4-0.5c0.1-0.3,0-0.4-0.2-0.6c-0.3,0-0.5,0.1-0.8,0.1
			c0,0.2,0.1,0.4,0.2,0.6c-0.2,0.1-0.3,0-0.5,0c-0.2,0-0.1,0.3-0.2,0.3c0.2-0.9-1.1-0.6-0.7,0c-0.6,0.1-0.2,0.9,0.3,0.7
			c0.2-0.1,0.2-0.4,0.3-0.6c0.2,0.1,0.4,0.2,0.4,0.4c-0.3,0.1-0.7,0.5-0.2,0.7c0.2,0,0.3-0.1,0.5-0.1c0.1-0.2,0.3-0.3,0.5-0.4
			c0.3,0.1,0.5-0.1,0.6-0.2c0.1,0.1,0,0.2,0,0.3c-0.3,0.1-0.8,0.2-0.9,0.5c-0.5-0.1-0.9,0-0.8,0.4c0,0.1,0.2,0.3,0.4,0.2
			c0.2,0.2,0.2,0.7-0.1,0.8c-0.5,0-0.8-0.1-1.1,0c-0.5,0.1-0.4,0.8-0.6,1.2c0.2,0.5-0.2,0.9,0.2,1.1c0.1,0.1,0.3,0,0.4,0.1
			c0.1,0.1,0.1,0.3,0.2,0.3c0.4,0,0.6-0.2,0.9-0.3c0.1-0.1,0-0.2,0.1-0.2c0.2-0.1,0.5-0.1,0.8-0.1c0.1,0,0.1-0.2,0.1-0.3
			c0.2-0.1,0.3-0.4,0.4-0.6c0.2-0.1,0.4-0.1,0.5-0.3c0-0.1-0.1-0.2-0.1-0.3c0.2-0.1,0.3,0,0.5-0.1c0.4-0.1,0.6-0.6,1-0.6
			c0.3,0,0.3,0.4,0.5,0.6c0.5,0,0.9,0.1,1.1,0.3c0.2,0.2,0.3,0.5,0.6,0.5c0.2-0.1,0.1-0.5,0-0.7c0-0.1,0.2-0.1,0.2-0.2
			c-0.1-0.2-0.4-0.2-0.4-0.4c-0.1,0-0.1,0-0.2,0.1c-0.3-0.2-0.8-0.2-0.9-0.6c0.6-0.1,1.3,0.2,1.6,0.5c-0.1,0.3,0.1,0.5,0.2,0.7
			c0.1,0,0.3,0.1,0.3,0c-0.1,0.4,0.5,0.7,0.7,0.3c0.2,0.1,0.3-0.1,0.5-0.1c0.1-0.4-0.1-0.7-0.4-0.8c-0.1-0.1,0.1-0.2,0.1-0.3
			c0.4,0,0.5,0.3,0.7,0.5c0.3,0,0.4,0.2,0.6,0.2c0.2,0,0.4-0.3,0.7-0.3c0.1-0.2,0.2-0.4,0.2-0.5c0.2-0.1,0.3-0.1,0.5-0.2
			c0.2-0.1,0.3-0.2,0.5-0.2c0.4,0,0.3,0.5,0.2,0.9c0,0.3,0,0.4-0.2,0.6c-0.1,0.1-0.3,0.1-0.5,0.2c-0.1,0.1-0.2,0.2-0.3,0.3
			c-0.2,0.1-0.3,0.1-0.6,0.1c-0.3,0.1-0.6,0.2-0.9,0.2c-0.1-0.1-0.1-0.2-0.2-0.3c-1.1,0.5-2.4,1-3.7,1.2c-0.2-0.5-0.2-1.1-1-1
			c-0.2,0-0.3,0.2-0.5,0.2c-0.3,0.1-0.7-0.1-1.1,0C-58.9,277.7-59.4,278-59.6,278.4 M-60.1,287.9c-4.2-0.1-7.6-1.1-10.6-2.4
			c-3-1.3-5.5-3.1-7.7-5.2c1.9-1.8,3.7-3.6,5.5-5.4c2.5,2.2,5.4,3.9,9.3,4.8c-0.2,0.2-0.5,0.3-0.8,0.4c-0.3,0.4-0.8,0.6-1.2,1
			c-0.1,0.2-0.2,0.4-0.2,0.7c-0.2,0.2-0.2,0.6-0.3,0.8c-0.2,0.1-0.5,0.1-0.7,0.3c0,0.4,0.2,0.7,0.3,0.9c0.3,0.6,0.6,1,1.1,1.4
			c0.1,0.6,0.8,1,1.3,1.4c0.2,0.1,0.3,0.3,0.5,0.4c0.4,0.1,0.9,0,1.3,0.1c0.1,0,0.2,0.1,0.3,0.1c0.6,0.1,1.2,0.1,1.7,0.2V287.9z
			 M-60.1,297c-11.3-0.4-18.8-4.6-24.9-10.1c0.2-0.3,0.5-0.5,0.8-0.7c0.2,0.2,0.4,0.3,0.7,0.6c0.2,0.2,0.5,0.5,0.7,0.5
			c0.1,0,0.3,0,0.5,0c0.4,0.1,0.4,0.1,0.8,0c0.1,0,0.3,0,0.4-0.1c0.1,0,0.3-0.2,0.5-0.2c0.2-0.1,0.4-0.1,0.5-0.1
			c0.3-0.1,0.6-0.4,0.9-0.4c0.2,0,0.4,0.1,0.7,0.1c0.2,0,0.3-0.1,0.5-0.1c0.2,0,0.4,0.1,0.5,0.1c0.5,0,0.8-0.2,1.1-0.4
			c0.2-0.1,0.4-0.3,0.4-0.5c0-0.2-0.1-0.4-0.1-0.6c-0.4-0.6-0.8-1.1-1.2-1.7c4.4,3.3,9.6,5.8,17.2,6.1V297z M-60.1,306
			c-7.2-0.1-13.1-1.7-18.2-4c-5.1-2.3-9.5-5.2-13.2-8.9c1.9-1.8,3.7-3.6,5.6-5.4c6.3,5.8,14.1,10.1,25.9,10.6V306z M-96,261.8h7.9
			c0,1.5,0.2,2.8,0.4,4.1c-0.3,0-0.6-0.2-0.9-0.1c-0.4,0.1-0.5,0.7-0.7,1.1c-0.1,0.2-0.4,0.3-0.6,0.5c-0.1,0.1-0.1,0.2-0.2,0.3
			c-0.1,0.1-0.1,0.2-0.2,0.3c-0.1,0.2-0.1,0.4-0.2,0.6c-0.1,0.3-0.5,0.5-0.6,0.9c0,0.2,0.1,0.4,0.1,0.6c0,0.3-0.2,0.6-0.2,0.8
			c0,0.2,0.2,0.4,0.2,0.6c0,0.4-0.3,0.7-0.2,1c-0.2,0.3-0.5,0.2-1,0.3c-0.2,0-0.4,0.2-0.5,0.2c-0.4,0.1-0.9,0-1.3,0
			C-95.2,269.7-96,266.2-96,261.8C-96.1,261.9-96.1,261.8-96,261.8 M-80.1,242.2c-4.3,4.5-7.6,10.1-8,18.4H-96
			c0.2-5.4,1.4-9.9,3.2-13.8c1.9-3.9,4.2-7.3,7.1-10.1C-83.8,238.6-81.9,240.4-80.1,242.2 M-79.1,241.3c-1.9-1.8-3.8-3.6-5.6-5.5
			c6.1-5.4,13.5-9.5,24.7-9.8v7.7C-68.7,234-74.4,237.1-79.1,241.3 M-72.6,247.7c-1.9-1.8-3.7-3.6-5.6-5.4c4.5-3.9,9.9-6.9,18-7.2
			c0,0,0,0,0.1,0v7.7C-65.7,243-69.5,245-72.6,247.7 M-70.9,267.1c0.3,0.2,0.7,0.4,0.6,0.8C-70.5,267.6-70.9,267.5-70.9,267.1
			 M-71.3,266.6c0.2,0,0.4,0.1,0.3,0.3C-71.2,266.9-71.3,266.7-71.3,266.6 M-74.8,265.8c0-0.2,0.2-0.3,0.4-0.3
			C-74.5,265.7-74.6,265.9-74.8,265.8 M-78.7,265.3c-0.1,0.2-0.1,0.2-0.1,0.4c-0.2-0.2-0.7-0.1-0.8,0.1c-0.1-0.3,0.1-0.5,0.1-0.8
			C-79.3,265.1-79.1,265.4-78.7,265.3 M-78.3,260.6c-0.9,0.1-1.8,0-2.7,0c-0.1-0.2-0.1-0.5,0-0.7c0.2-0.3,1.4-0.7,2.1-0.4
			C-78.5,259.7-78.5,260.2-78.3,260.6 M-77.7,255.1c-0.1,0.3-0.4,0.2-0.6,0.3c-0.2,0.1-0.4,0.2-0.7,0.3c-0.2,0.1-0.5,0.3-0.7,0.3
			c-0.2,0-0.4-0.1-0.7-0.1c-0.4,0.1-0.5,0.7-0.8,1.1c-0.1,0.3-0.4,0.3-0.5,0.6c0,0.5-0.4,0.7-0.5,1c-0.1,0.2-0.1,0.6-0.1,0.8
			c0,0.2,0.1,0.4,0.1,0.6c0,0.2-0.3,0.6-0.5,0.6c-0.3,0.1-0.7,0-1,0h-2.9c0.4-7.9,3.5-13.2,7.6-17.4c1.7,1.6,3.5,3.4,5.2,5.1
			c0.1,0.1,0.4,0.3,0.4,0.3c0,0.1-0.5,0.5-0.5,0.6c-1.1,1.2-2,2.5-2.8,4c-0.1,0.2-0.2,0.6-0.4,0.8c-0.1,0.1-0.2,0.2-0.4,0.3
			c-0.1,0.1-0.2,0.3-0.3,0.3c-0.2,0.1-0.3,0.1-0.5,0.1c-0.3,0.1-0.6,0.3-0.6,0.5C-78.9,255.6-78.1,255.2-77.7,255.1 M-85.3,285.3
			c-0.2,0.2-0.4,0.4-0.6,0.6c-0.2-0.2-0.4-0.4-0.6-0.6C-86.1,285.1-85.5,285-85.3,285.3 M-84.8,265.9c0.1,0.2,0.4,0.2,0.5,0.4
			c0.1,0.4-0.6,0.7-0.9,0.6c-0.2,0-0.3-0.2-0.5-0.3c-0.2-0.1-0.4-0.1-0.5-0.2c-0.2-1.4-0.5-3-0.5-4.6h3.3c-0.1,0.2-0.2,0.4-0.3,0.6
			c-0.1,0.2-0.1,0.4-0.2,0.6c-0.1,0.2-0.5,0.3-0.5,0.5c-0.1,0.1,0,0.3-0.1,0.5c0,0.2-0.1,0.6-0.2,0.8c-0.1,0.1-0.2,0.2-0.2,0.3
			C-84.9,265.4-84.9,265.8-84.8,265.9 M-79.9,277.9c-0.1-0.3,0-0.8-0.1-1c0-0.2-0.3-0.3-0.4-0.6c-0.3-0.4-0.7-0.9-0.7-1.6
			c0-0.4,0.1-0.6-0.1-1.1c0.3-0.1,0.6-0.2,0.7-0.6c0.1,0,0.2,0,0.3-0.1c0-0.1-0.1-0.2-0.1-0.2c-0.2,0-0.2,0.1-0.4,0.1
			c-0.1-0.1-0.1-0.2-0.2-0.2c-0.2,0-0.1,0.3-0.3,0.4c-0.3-0.3,0.4-0.6,0.2-0.9c-0.1-0.1-0.2-0.1-0.3-0.2c-0.1-0.1-0.2-0.4-0.3-0.7
			c0.1-0.1,0.2,0.1,0.4,0c0,0,0,0,0-0.1c-0.1-0.3-0.5-0.2-0.5-0.6c0-0.1,0.2-0.1,0.2-0.2c-0.1-0.3-0.1-0.6-0.3-0.8
			c-0.3,0.1-0.6,0.3-0.9,0.2c0-0.2,0.1-0.3,0.2-0.4c0.1,0,0.3,0,0.4,0c0.2-0.2,0-0.4,0-0.6c-0.2-0.3-0.5-0.4-0.6-0.7
			c-0.1-0.1-0.1-0.3-0.2-0.4c-0.2-0.2-0.6-0.4-0.7-0.7c0-0.3,0.2-0.5,0.2-0.8c0-0.3-0.4-0.4-0.4-0.7c0-0.1,0-0.4,0.1-0.6
			c0.3-0.5,1.5,0,1.7-0.7c0.1-0.2,0-0.4,0-0.6c0-0.3,0.1-0.5,0.2-0.8c0.2,0.1,0.4,0.1,0.7,0.1c0.2,0,0.4,0.1,0.5,0.1
			c0.3-0.1,0.2-0.3,0.4-0.5c-0.1-0.2-0.2-0.4-0.3-0.6h2.1c-0.1,0.5-0.2,1.1,0.5,1.1c0,0.2-0.2,0.2-0.2,0.4c-0.1,0.3,0.1,0.6-0.2,0.7
			c-0.5,0-0.6,0.5-1.2,0.3c-0.2-0.3-0.7-1.2-1.2-0.7c0,0.2,0.2,0.3,0.2,0.5c0,0.1,0,0.2,0,0.4c0,0.1,0.1,0.2,0.1,0.2
			c0,0.2-0.1,0.4-0.1,0.6c0,0.2,0.1,0.5-0.1,0.7c-0.2,0-0.2-0.2-0.4-0.3c-0.7-0.1-0.3,0.9,0,1.1c0.1,0,0.3,0,0.4,0
			c0.1,0.3,0.4,0.6,0.8,0.3c-0.1,0.2,0.1,0.6,0.4,0.5c0.1-0.2-0.2-0.2-0.2-0.4c0.2-0.1,0.7-0.2,0.7-0.5c0-0.1-0.2-0.3-0.3-0.2
			c-0.2,0-0.1,0.2-0.2,0.3c-0.1,0.1-0.2,0-0.3,0.1c-0.1-0.4,0-0.9,0.1-1.1c0.1,0,0.2,0.2,0.3,0.2c0.2-0.1,0.4-0.4,0.6-0.3
			c0.1,0.3-0.1,0.5-0.4,0.6c0,0.3,0.5,0.2,0.6,0c0.1,0.2,0.2,0,0.3-0.1c0.9,3.1,2.5,5.7,4.4,7.7c-1.9,1.9-3.9,3.8-5.8,5.7
			c-0.4-0.1-0.9,0-1.3,0.1c0.1-0.2,0.1-0.4,0.1-0.5c0.2-0.3,0.8-0.3,0.9-0.6C-79.7,278.5-79.8,278.1-79.9,277.9 M-68.3,265.4
			c0.2-0.3,0.3-0.8,0.7-0.7c0,0.3-0.2,0.5-0.2,0.9c-0.1,0-0.1,0-0.1,0.1C-68,265.5-68.1,265.5-68.3,265.4 M-70.2,268
			c0.3,0.2,0.8,0,1.1,0.2c-0.1,0.1-0.2,0.2-0.3,0.3c-0.1,0-0.1,0-0.2,0C-69.7,268.3-70.1,268.3-70.2,268 M-69.8,270
			c0.2-0.3,0.5-0.7,0.4-1.1c0.3-0.2,0.5-0.4,0.8-0.7c0.1-0.4,0.2-0.7,0.4-1c0.2-0.1,0.3-0.2,0.4-0.4c0.2,0.3,0.4,0.6,0.7,0.9
			c-1.8,1.8-3.7,3.6-5.5,5.4c-1.6-1.7-3.1-3.9-3.9-6.4c-0.2-0.5-0.4-1.1-0.2-1.4c0.4,0.2,0.5,0.6,0.9,0.7c0.4,0.1,0.7,0,1.1,0
			c0.2,0,0.4,0,0.5,0.1c0.4,0.2,0.1,1.1,0.9,0.9c0.1-0.1,0-0.2,0-0.4c0.3,0.1,0.5,0.3,0.7,0.5c0.2,0,0.4,0,0.4,0.2
			c-0.1-0.1-0.2-0.1-0.4-0.1c-0.3,0.2,0,0.4,0.2,0.6c0.2,0.2,0.4,0.5,0.6,0.6c0.1,0,0.1-0.1,0.3-0.1c0.1,0.1,0.1,0.4,0.2,0.4
			c0.6,0.1,0.4-0.4,0.3-0.7c0.1,0,0.1,0.1,0.2,0.1c0.2-0.4-0.4-0.4-0.2-0.8c0.4,0,0.4,0.3,0.6,0.6c0,0.1-0.1,0.1-0.1,0.2
			c0,0.1,0.1,0.1,0.2,0.3c0,0.1-0.1,0.2-0.1,0.3c0.1,0.3,0.2,0.6,0.4,0.8c0,0.1-0.1,0.2-0.1,0.3C-70.3,270.1-70,270.1-69.8,270
			 M-69.1,254.5c-0.1,0-0.1-0.1-0.1-0.1c-0.4,0-0.7,0.2-1.1,0.2c0-0.1,0-0.1,0-0.2c-0.1-0.1-0.4-0.2-0.5-0.3
			c-0.3-0.3-0.3-0.4-0.5-0.6c-0.1,0-0.2,0-0.3-0.1c-0.2-0.1-0.3-0.2-0.4-0.3c-0.3-0.1-0.7-0.2-0.9-0.2c-0.6,0-1.2,0.1-1.5,0.3
			c-0.1,0.1-0.3,0.3-0.6,0.3c-0.2,0-0.4-0.1-0.6,0c0.8-1.6,1.8-2.9,3-4.1c1.8,1.7,3.6,3.4,5.2,5.1c-0.5,0-0.6,0.3-1,0.3
			c0-0.1,0.1-0.1,0.1-0.2C-68.5,254.6-68.8,254.4-69.1,254.5 M-63.7,253.5c-0.1,0.2-0.4,0.4-0.6,0.5c-0.2,0-0.2-0.1-0.3,0
			c-0.2,0.1-0.1,0.3-0.2,0.5c-0.2,0-0.2-0.1-0.4-0.1c-0.2,0.1-0.2,0.2-0.4,0.2c-0.1,0,0.1-0.1,0-0.1c-2-1.9-4-3.9-6-5.8
			c2.8-2.5,6.4-4.3,11.5-4.6v7.5c-0.9,0.1-1.7,0.2-2.4,0.4c-0.2-0.5-0.5-0.1-0.7,0.2c-0.1,0.2-0.3,0.4-0.4,0.6c0,0.1,0,0.2-0.1,0.3
			c0,0.1-0.1,0.1-0.1,0.2C-63.7,253.4-63.7,253.5-63.7,253.5 M-101.1,280.1c-2.2-4.6-3.9-10.1-4.3-16.4c0-0.5,0-1.2-0.1-1.8v-0.1
			h7.9c0.1,4.3,0.8,7.8,1.9,11.1c-0.2,0-0.5,0-0.6,0.1c-0.3-0.1-0.5-0.2-0.7-0.4c-0.2-0.2-0.1-0.5-0.6-0.4c-0.2,0-0.2,0.2-0.4,0.2
			c-0.2,0.1-0.4,0-0.6,0.1c0,0.2,0.1,0.2,0.1,0.4c0,0.1-0.2,0.2-0.3,0.3c-0.1,0-0.2,0-0.2,0c-0.1,0-0.3,0.2-0.5,0.2
			c-0.2,0-0.2-0.3-0.4-0.4c0-0.1,0.2,0,0.2-0.1c0-0.4-0.2-0.9-0.7-0.8c-0.2,0.1,0,0.3-0.1,0.4c-0.2,0-0.2-0.2-0.3-0.2
			c-0.1,0-0.2,0.1-0.3,0.2c0,0.2,0.2,0.3,0.4,0.3c0.2,0,0.1-0.1,0.2-0.1c0.2,0,0.4,0,0.5,0.2c-0.2,0.2-0.5,0-0.8,0.1
			c-0.4,0.1-0.5,0.7-0.9,0.8c-0.2-0.1-0.3-0.1-0.5-0.2c-0.1,0.1-0.2,0.2-0.2,0.4c0.2,0.3,0.6,0,0.7-0.1c0,0.7,0.2,1.5,0.4,2.1
			c0,0.1-0.1,0.2-0.1,0.3c-0.2-0.2,0-0.6-0.2-0.7c-0.1,0-0.2,0.1-0.3,0.1c0-0.2,0-0.5,0.1-0.5c-0.1-0.1-0.2-0.4-0.4-0.3
			c-0.4,0.1,0,0.8,0.1,1c0,0.1-0.2,0.1-0.2,0.2c0,0.3,0.2,0.6,0.4,0.7c0,0.3,0.2,0.4,0.3,0.6c0.1,0.2,0,0.5,0.2,0.7
			c-0.1,0-0.1,0-0.2-0.1c-0.2,0.3,0.1,0.7,0.5,0.5c0.1-0.2-0.2-0.2-0.1-0.4c0.4,0.1,0.4,0.5,0.5,0.8c-0.2,0.1-0.2-0.3-0.5-0.2
			c-0.1,0.3,0.3,0.5,0.5,0.5c0,0.3,0.2,0.7,0.5,0.8c0.1,0,0.1-0.1,0.2-0.2c0-0.2,0.1-0.4,0.1-0.6c0-0.2-0.1-0.3-0.2-0.4
			c0-0.1,0-0.2,0-0.3c-0.1-0.4-0.4-0.6-0.5-1c0.4,0.2,0.5-0.2,0.8-0.3c0.1,0.1,0,0.2,0.1,0.3c0.4,0.1,0.5,0.7,0.9,0.9
			c0.2,0.2,0.9,0.4,1.1,0.1c0.1-0.2-0.1-0.4,0.1-0.6c0.4,0.2,0.3,0.8,0.8,0.9c0.2,0.1,0.1,0.3,0.2,0.4c0.2,0.1,0.5,0,0.8,0.1
			c0-0.2-0.2-0.6-0.2-0.8c0.5,0.3,0.1,1.4,0.7,1.5c0.2,0,0.4-0.1,0.7-0.1c0.1,0.1,0.2,0.3,0.1,0.5c0.1,0.2,0.3,0.6,0.5,0.9
			c0.2,0.2,0.4,0.3,0.5,0.5c0.2,0.2,0.3,0.5,0.5,0.5c0.2,0.1,0.6,0.1,0.8,0c0.2-0.1,0.2-0.3,0.4-0.4c0.2,0.3,0.2,0.8,0.3,1.1
			c0.1,0.2,0.3,0.4,0.5,0.6c0.5,0.5,1.3,0.7,2.1,1c0.6,0.8,1.3,1.5,2,2.2c-1.9,1.8-3.7,3.6-5.5,5.4
			C-95.8,288.9-98.8,284.8-101.1,280.1 M-105.7,251.7c-0.7,3.2-1,6.6-1,10.4c0,3.7,0.6,7.1,1.3,10.1c0.8,3.1,1.9,5.9,3.1,8.4
			c2.5,5.2,5.8,9.6,9.7,13.4c3.9,3.8,8.5,7,13.9,9.3c5.4,2.3,11.7,4.1,19.2,4.1c7.6,0,13.9-1.7,19.3-4c5.4-2.4,10-5.5,13.9-9.3
			c3.9-3.8,7.2-8.1,9.7-13.4c2.5-5.2,4.2-11.2,4.4-18.5c0.2-7.5-1.6-13.8-3.9-19.1c-1.1-2.6-2.6-5.1-4.2-7.3
			c-4.7-6.7-11-12.2-19-15.8c-5.3-2.4-11.5-4.1-18.9-4.4h-2.7c-11.1,0.5-19.5,3.9-26.3,8.7c-6.8,4.7-12.2,11-15.8,18.9
			C-104,245.8-105,248.6-105.7,251.7 M-115.2,277.5C-115.2,277.5-115.2,277.5-115.2,277.5c-0.4-2.5,0.1-4.7,0.8-6.6
			c0.7-1.9,1.6-3.7,2.4-5.4c0.8-1.8,1.4-3.8,1.8-6c0.4-2.2,0.7-4.5,0.5-7.1c-3.4,5.4-7.7,10.6-7.2,19.7c-0.6-2.2-1.1-4.4-1.6-6.7
			c-0.5-2.3-1-4.4-1.9-6.3c-1.7-3.8-4.1-7.1-4.4-12.1c-0.8,2.7-1,6.2-0.7,9.3c0.3,2.9,1,6,2.1,8.3
			C-121.2,269.4-117.6,273-115.2,277.5 M-56.1,258.5c-0.2-0.1-0.5-0.2-0.5,0.2C-56.5,258.9-56.1,258.8-56.1,258.5 M-46.9,235.3
			c-0.9-0.5-0.4,1.5,0.3,0.7C-46.6,235.7-46.8,235.6-46.9,235.3 M-3.9,280.6c-0.7,1-1.3,2-1.9,3.1c-1.1,2.1-2.1,4.5-3.5,6.4
			c0.4-0.8,0.9-1.7,1.3-2.7c0.4-0.9,0.7-1.9,0.9-2.9c0.5-2.1,0.6-4.5,0.6-7c0-4.9-1.2-9.3-2.2-13c-1.7,3.8-2.5,8.7-2.1,14.1
			c0.2,2.5,0.5,5.1,0.7,7.5c0.1,2.7,0,5.2-1.2,6.9c0.1,0.1,0.1-0.1,0.2-0.1c0.5-0.4,0.9-0.8,1.3-1.1c3.6-3,7.4-5.8,10.4-9.3
			c0.9-1,1.5-2.2,2.2-3.4c1.9-3.7,3.5-7.9,3.4-13.3c-1.5,5.1-4.6,8.6-7.8,12.1C-2.4,278.8-3.2,279.7-3.9,280.6 M-8.2,294
			c-1,0.8-2.1,1.5-3,2.3c-2.9,2.4-5.5,5.2-8.5,7.5c0,0,0,0,0-0.1c0.6-0.7,1.3-1.4,1.9-2.1c1.7-2.1,3.5-4.7,4.3-7.6
			c0.3-1.1,0.3-2.3,0.4-3.5c0.4-3.5,0.9-7.1,0.7-11.1c-1.8,4.1-4.3,7.8-6.1,11.9c-0.9,2-1.5,4.6-1.8,7.2c-0.3,2.7-0.5,5.3-1.7,7.2
			c4.5-1.6,9.7-2,13.4-4.3c1.2-0.7,2.3-1.6,3.3-2.6c3.9-3.9,6.9-8.6,7.8-15.5C-0.2,287.9-4.1,291.1-8.2,294 M5.8,247.1
			c-0.3,5.1-2.6,8.4-4.3,12.1c-0.9,1.9-1.5,4-2,6.3c-0.5,2.2-0.9,4.5-1.6,6.6c0.4-8.5-3.2-13.6-6.5-18.7c-0.2-0.3-0.3-0.5-0.5-0.8
			c0-0.1-0.1-0.2-0.2-0.2c-0.1,2.6,0.2,5,0.6,7.1c0.4,2.2,0.9,4.2,1.8,6c0.8,1.7,1.7,3.5,2.4,5.4c0.7,1.9,1.2,4.1,0.8,6.6
			c2.8-5.5,7.4-9.4,9.1-16c0.6-2.2,1-4.5,1.1-7.2v-2.1C6.5,250.4,6.3,248.6,5.8,247.1 M-90.9,313.7c3.3-0.4,6.5-1.1,9.6-1.8
			c-2.3-0.9-3.6-2.8-4.7-4.7c-1.1-2-2.1-4.2-3.6-5.9c-0.7-0.8-1.5-1.6-2.3-2.5c-2.2-2.3-4.3-4.8-6.6-7c-0.1-0.1-0.2-0.2-0.3-0.2
			c0.6,2.2,1.1,4.4,1.8,6.4c0.7,2.1,1.6,4,2.4,5.8c1.8,3.7,5.4,5.6,9.3,7.3c-2.4-0.5-4.7-1.4-7.1-2.1c-2.4-0.7-4.9-1.2-7.4-1.8
			c-4.9-1.2-9.5-2.8-13.1-5.3c0,0,0,0,0,0c2.6,4.6,6.8,8.4,12.2,10.5C-97.9,313.5-94.5,314.2-90.9,313.7 M-106,303.1
			c3,0.9,6.3,1.6,9.3,2.5c-1.2-1.9-1.4-4.5-1.7-7.2c-0.3-2.5-0.9-5.2-1.8-7.2c-0.9-2-2.1-3.9-3.1-5.9c-1.1-2-2.1-3.9-3-6
			c-0.2,3.9,0.3,7.6,0.7,11.1c0.1,1.2,0.1,2.5,0.4,3.5c1.1,4.1,3.8,7,6.2,9.7c-2-1.5-3.8-3.3-5.7-5.1c-0.9-0.9-1.8-1.7-2.8-2.5
			c-1-0.8-2-1.5-3-2.3c-2-1.5-4.1-3-5.8-4.8c-1.8-1.7-3.3-3.6-4.6-5.7c0-0.1,0-0.2-0.1-0.1c1,6.8,3.9,11.6,7.8,15.4
			c1,1,2.1,1.8,3.3,2.6C-108.9,302.2-107.5,302.7-106,303.1 M-19.2,307.4c-2.5,0.6-5,1.1-7.4,1.8c-2.4,0.7-4.7,1.6-7.1,2.1
			c4-1.6,7.6-3.5,9.3-7.3c0.9-1.8,1.8-3.7,2.4-5.8c0.7-2.1,1.2-4.2,1.8-6.4c-0.1,0-0.2,0.1-0.3,0.2c-2.3,2.2-4.4,4.6-6.6,7
			c-0.8,0.8-1.5,1.6-2.2,2.5c-1.4,1.7-2.5,3.8-3.6,5.8c-1.1,2-2.4,3.9-4.7,4.8c3.1,0.6,6.3,1.4,9.6,1.7c3.6,0.4,7-0.2,9.8-1.3
			c5.4-2.1,9.5-5.7,12.1-10.5c0,0,0,0,0,0C-9.6,304.6-14.3,306.2-19.2,307.4 M-113.6,288c1.5,1.3,3.1,2.6,4.6,3.8
			c0.5,0.4,1,0.9,1.5,1.2c-1.3-1.6-1.4-4.2-1.2-6.9c0.2-2.5,0.5-5,0.7-7.5c0.3-5.6-0.4-10.4-2.1-14.2c-1.1,3.9-2.2,8.1-2.2,13.1
			c0,2.6,0.1,4.9,0.6,7c0.5,2.1,1.3,3.9,2.2,5.5c0,0,0,0-0.1,0c0,0,0,0,0-0.1c-2.1-3-3.2-6.7-5.3-9.5c-0.7-0.9-1.5-1.8-2.3-2.7
			c-3.1-3.5-6.3-7-7.7-12c0,3.6,0.7,6.7,1.7,9.4c1,2.7,2.2,5.3,3.9,7.3C-117.6,284.5-115.6,286.2-113.6,288 M-21.1,316.8
			c-1.9,0.3-3.9,0.2-5.8-0.1c-3.5-0.5-6.9-1.6-10.2-2.3c-3.5-0.8-7.5-1.1-11.5-0.8c-3.4,0.3-6.5,0.8-9.4,1.6
			c-0.4,0.1-0.9,0.3-1.2,0.3s-0.8-0.2-1.2-0.3c-1.3-0.3-2.6-0.6-3.8-0.9c-3.4-0.6-7.7-1.1-11.7-0.8c-5.8,0.5-10.2,2.4-15.7,3.2
			c-3.8,0.6-7.8,0.2-10.8-1.2c-0.1,0.1,0,0.2,0.1,0.2c0.1,0.1,0.1,0.2,0.2,0.2c1.9,2.1,4.9,3.3,8.2,4c3.5,0.8,7.8,1.3,11.9,0.8
			c5.9-0.7,10.1-2.9,15.2-4.3c1.7-0.5,3.8-0.7,5.8-0.3c-6.1,2.1-11.3,5.4-15.1,9.8c-0.1,0.1-0.3,0.3-0.3,0.4
			c0.8,0.3,1.5,0.5,2.3,0.7c3.7-4.7,8.1-8.8,14.8-10.6c6.6,1.8,10.9,5.9,14.6,10.6c0.8-0.3,1.6-0.5,2.3-0.7c-0.4-0.6-1-1.1-1.5-1.6
			c-0.5-0.5-1.1-1-1.7-1.5c-3.4-3-7.4-5.3-12.2-7c2.1-0.4,4.1,0,5.8,0.4c5.1,1.4,9.3,3.6,15.2,4.3c4.1,0.5,8.5,0,11.9-0.8
			c3.6-0.8,6.6-2.1,8.5-4.4c0,0,0,0,0,0C-17.7,316.1-19.3,316.5-21.1,316.8 M-56.8,258.4c0-0.1,0.1-0.2,0.1-0.3
			c-0.1-0.1-0.2-0.2-0.4-0.1c0,0.2,0,0.3,0.1,0.3C-57,258.4-56.9,258.5-56.8,258.4 M-57.9,250.9c0.1-0.1,0.1-0.1,0.1-0.3
			C-58.1,250.3-58.3,250.9-57.9,250.9 M-57.2,251.3c0.1,0.1,0.1,0.1,0.2,0.1c0.1-0.1,0.1-0.1,0.1-0.3C-57,251-57.3,251-57.2,251.3
			 M-56.5,251.5c-0.3-0.4-0.5,0.3,0,0.1C-56.5,251.6-56.5,251.6-56.5,251.5 M-63.6,259.6c0.2,0,0.3-0.3,0.3-0.5
			c-0.1-0.3-0.8-0.6-0.9-0.1C-64,259.1-64,259.6-63.6,259.6 M-54,250.9c0.1-0.2,0-0.4-0.2-0.4c0,0.1-0.1,0.2-0.1,0.3
			C-54.2,250.9-54.1,251-54,250.9C-54,250.9-54,250.9-54,250.9 M-52,250.6c0.4,0.2,0.8-0.3,0.6-0.7c-0.2,0-0.2,0.2-0.4,0.2
			c-0.2,0-0.4-0.1-0.4,0.1C-52.2,250.4-52.1,250.6-52,250.6 M-53.6,250.8c0.1,0,0.1-0.2,0.2-0.2c0.2,0.2,0.4,0,0.6,0
			c0.1,0,0.2,0.1,0.3,0.1c0.1,0,0.2-0.2,0.2-0.3c-0.1-0.3-0.5-0.1-0.7,0c-0.4,0.1-0.6,0-0.8,0.2C-53.8,250.7-53.8,250.8-53.6,250.8
			 M-52.6,253.4c0.4-0.5,0.7-1.1,1.4-1.3c0.1-0.2,0.2-0.3,0.3-0.6c-0.2-0.1-0.4-0.2-0.5-0.2c-0.2,0.2-0.4,0.5-0.8,0.6
			C-52.2,252.5-53.2,253.2-52.6,253.4 M-62.3,261.5c0.1-0.3-0.2-0.4-0.3-0.7c-0.2,0-0.4,0-0.5,0.1c0,0.1,0,0.3,0,0.4
			C-62.9,261.5-62.6,261.5-62.3,261.5c0,0.7-1.1,0.5-0.8,1.3c0.7-0.1,1-0.2,1.7-0.2C-61,262-61.8,261.6-62.3,261.5 M-55.8,264.7
			c0.1,0.4,1.3,0.7,1.1,0c-0.1-0.2-0.7-0.5-0.9-0.4C-55.7,264.3-55.8,264.5-55.8,264.7 M-56.3,261.3c0,0.1-0.1,0.1-0.1,0.2
			c0.1,0,0.1,0.1,0.2,0.1c0,0,0-0.1,0.1-0.1c0.1,0,0.1,0.1,0.2,0.1c0.1,0,0.1-0.2,0.1-0.3c-0.2,0-0.2,0.1-0.3,0.1
			C-56.2,261.4-56.2,261.3-56.3,261.3 M-61,268.5c-0.2-0.1-0.5,0.1-0.7,0c-0.1,0-0.2-0.2-0.3-0.3c-0.3-0.1-0.5,0.1-0.5,0.2
			c-0.1,0.3,0.2,0.3,0.3,0.5c0,0.1-0.2,0.1-0.2,0.3c0.2,0.3,0.3,0.5,0.8,0.4c0.2,0,0.5-0.1,0.6-0.2C-60.6,269.3-60.6,268.7-61,268.5
			 M-56.2,264c0,0.2,0.2,0.3,0.3,0.3c0.6-0.2,0.1-0.8,0-1.2C-56.2,263.1-56.3,263.7-56.2,264 M-56.1,258.2c0-0.2-0.4-0.5-0.4-0.1
			C-56.3,258.1-56.3,258.3-56.1,258.2 M-64.1,261.5c-0.1,0.2-0.2,0.5-0.4,0.6c0.1,0.4,0.4,0.5,0.7,0.7
			C-63.9,262.5-63.8,261.7-64.1,261.5 M-64.3,260.9c-0.1-0.2,0-0.2,0.1-0.4c-0.2-0.3-0.4,0.2-0.4,0.4
			C-64.6,260.9-64.4,261-64.3,260.9 M-64.2,261c0.1,0.2,0.5,0.3,0.8,0.3c0-0.1,0.1-0.3,0-0.4C-63.7,260.8-64,260.8-64.2,261
			 M-62.7,260.1c0-0.1,0.1-0.2,0.1-0.4c-0.1-0.3-0.6-0.3-0.7,0c0,0.1,0.2,0.2,0.1,0.4c0.2,0,0.2,0.3,0,0.3c-0.1-0.1-0.2-0.3-0.2-0.6
			c-0.5-0.1-0.7,0.5-0.3,0.7c0.2,0.1,1.2,0,1.3-0.2C-62.5,260.2-62.7,260.3-62.7,260.1 M-54.7,219.1c0.1-0.1,0-0.2-0.2-0.2
			C-54.9,219-54.8,219.1-54.7,219.1C-54.7,219.1-54.7,219.1-54.7,219.1 M-62.2,293.5c-0.2-0.2-0.6-0.1-0.5,0.3
			C-62.4,294.1-62,293.9-62.2,293.5 M-62.2,251.5c-0.1-0.2-0.4-0.2-0.5,0C-62.6,251.9-62.1,251.9-62.2,251.5 M-64.1,253.4
			c0.3,0.1,0.3-0.5,0.3-0.7C-64.2,252.5-64.4,253.3-64.1,253.4 M-86.7,295.8c-0.1,0-0.2,0-0.2,0.1c-0.1,0.3,0.4,0.6,0.6,0.8
			c0.2,0.2,0.5,0.7,0.8,0.6c0.1,0,0.2-0.3,0.1-0.6c-0.1-0.2-0.4-0.4-0.5-0.5C-86.3,296-86.4,295.7-86.7,295.8 M-61.6,251.2
			c0-0.2-0.2-0.3-0.4-0.2C-62.6,251.2-61.6,251.7-61.6,251.2 M-61.4,251c0.1-0.1,0.2-0.3,0.2-0.4c-0.1,0.2-0.5,0-0.6,0.2
			C-61.8,251-61.6,251-61.4,251 M-51.4,276.8c-0.1-0.4-0.8,0.2-1.1,0.1c-0.1,0.1-0.2,0.1-0.2,0.3C-52.5,277.5-51.3,277.1-51.4,276.8
			 M-66,290.5c0.1-0.6-0.6-0.5-0.5,0C-66.5,290.7-66.1,290.7-66,290.5 M-49.5,275.9c0-0.2,0.1-0.3,0.1-0.5c-0.3-0.2-0.7,0.2-0.9,0.5
			C-50.2,276.1-49.7,276.1-49.5,275.9 M-92.1,272.7c0.1-0.1-0.1-0.1-0.2-0.1C-92.2,272.6-92.2,272.7-92.1,272.7 M-63.8,231.5
			c0.3,0.2,0.6,0.1,0.6-0.2C-63.3,230.9-63.9,231-63.8,231.5 M-95.7,280.9c0,0,0-0.1,0-0.2c0,0-0.1,0-0.1,0
			C-95.8,280.8-95.8,280.9-95.7,280.9 M-78.9,271.6c0-0.2-0.2-0.3-0.3-0.2C-79.2,271.7-79.1,271.7-78.9,271.6 M-79.7,271.1
			c0,0.2,0.3,0.3,0.5,0.2C-79.2,271.1-79.6,271-79.7,271.1 M-80,270.1c-0.1,0.3,0.2,0.6,0.4,0.5C-79.1,270.6-79.6,269.7-80,270.1
			 M-79.5,272.6C-79.5,272.6-79.5,272.6-79.5,272.6c-0.2-0.2-0.4,0-0.4,0.2C-79.7,273-79.5,272.8-79.5,272.6 M-79.6,269.4
			c0-0.2,0.1-0.4,0.1-0.6c0-0.3-0.3-0.5-0.3-0.8c-0.2,0-0.2,0-0.4,0c-0.1-0.2-0.1-0.5-0.3-0.6c-0.6-0.1-0.5,0.3-0.4,0.7
			c0.1,0.5,0.2,0.7,0.4,1.1c0.2,0.3,0.4,0.6,0.7,0.6C-79.6,269.7-79.7,269.5-79.6,269.4 M-67.8,242.5c-0.2-0.1-0.2-0.2-0.3-0.3
			c-0.4-0.2-0.7,0.2-0.8,0.4c0.2,0.4,0.9,0.3,1.2,0c0.1,0.2,0.6,0.1,0.6-0.1C-67.2,242.4-67.7,242.5-67.8,242.5 M-64.2,231.3
			c0.1-0.1,0.2-0.2,0.2-0.4c-0.1-0.1-0.4-0.1-0.6-0.2C-64.6,231-64.5,231.3-64.2,231.3 M-65.1,231c0.1,0,0.1,0.1,0.2,0.1
			c0.1-0.1,0.1-0.2,0.1-0.3C-65,230.7-65.2,230.8-65.1,231 M-76.4,234.2c0.1,0.1,0.3,0.2,0.5,0.1c0-0.1,0.1-0.2,0.1-0.3
			C-76,233.7-76.5,233.9-76.4,234.2 M-79.1,272.1c-0.1,0.1-0.4,0.1-0.3,0.3c0.1,0.1,0.3,0,0.4-0.1c0-0.2,0.1-0.3,0.2-0.4
			C-78.9,271.6-79.3,271.8-79.1,272.1 M-55.1,277.6c0.1-0.2,0.1-0.6-0.1-0.7c-0.4,0-0.7,0.2-0.7,0.6
			C-55.7,277.6-55.3,277.6-55.1,277.6 M-30.8,257c0.2,0.2,0.5-0.2,0.3-0.3C-30.8,256.7-30.8,256.8-30.8,257 M-2.7,243.8
			c-0.3,2.2-0.3,4.4,0,6.4c0.2,1,0.4,1.9,0.7,2.8c0.2,1,0.5,1.9,0.3,3c-0.6-2-1-3.8-1.8-5.4c-0.8-1.6-2-2.8-3.3-4
			c-2.5-2.3-5.1-4.6-7.6-6.9c0,0,0,0,0,0c1,2.2,1.9,4.3,3,6.3c1.1,2,2.1,4.1,3.4,5.9c1.3,1.8,2.7,3.5,4,5.3c1.3,1.9,2.6,3.8,2.7,6.6
			c0.6-2.8,1.3-5.5,2-8.3c0.7-2.8,1.4-5.6,1.2-9c-0.3-6.2-2.3-11.3-5.4-14.7c-0.1-0.1-0.2-0.3-0.3-0.3c0.7,1.6,1.2,3.5,1.3,5.6
			C-2.2,239.5-2.5,241.8-2.7,243.8 M-33,245.7c0.1-0.5-0.5-0.3-0.5-0.1C-33.4,245.8-33.1,245.8-33,245.7 M-33.2,246.8
			c0,0.1-0.2,0-0.2,0.1c0,0.3,0.2,0.4,0.6,0.4c0.1-0.2,0-0.4-0.1-0.5c0,0,0.1-0.1,0.1-0.1c0.2,0.1,0.1,0.4,0.2,0.5
			c0.1,0,0.2,0,0.2-0.1c0-0.4-0.1-0.7-0.5-0.6c-0.3-0.2-0.6-0.9-1-0.5C-33.9,246.5-33.4,246.5-33.2,246.8 M-101.7,274.7
			c0.1-0.1,0-0.3,0-0.4c-0.2,0-0.4,0.1-0.5,0.2C-102.2,274.6-101.9,274.8-101.7,274.7 M-37.2,242.5c0,0.3,0.6,0.3,0.6,0.1
			C-36.6,242.3-37.1,242.2-37.2,242.5 M-32,249.4c-0.1,0.5,0.7,0.3,0.7,0.1C-31.4,249.2-31.8,249.4-32,249.4 M-24.5,219.9
			c0.5,0.6,1,1.2,1.5,1.8c1.6,2.1,3.2,4.3,4.8,6.3c1.1,1.4,2.4,2.5,3.9,3.6c1.5,1,3.1,2.1,4.3,3.2c0,0,0,0,0,0
			c-0.5-1.9-1.3-3.6-2.2-5.2c-0.9-1.6-1.8-3.1-3.1-4.3c-1.3-1.2-2.8-2.1-4.4-3.1c-1.5-0.9-3.2-1.8-4.9-2.6
			C-24.7,219.8-24.5,219.9-24.5,219.9 M-32.2,249.1c0.1,0.3,0.5,0.1,0.6-0.1C-31.6,248.6-32.1,248.8-32.2,249.1 M-31.6,250
			c0.1,0.3,0.2,0.9-0.2,1c-0.1-0.3,0-0.7,0.1-0.8c-0.1-0.1-0.4-0.1-0.5,0c-0.2,0.4,0.3,0.7,0.3,1.1c0.4,0.4,0.8,1.1,0.8,1.8
			c0,0.1-0.1,0.3,0,0.4c0.1,0.3,0.3,0.5,0.4,0.7c0.2,0,0.4-0.1,0.5-0.2c0.1-0.9-0.2-1.4-0.4-2.1c-0.1-0.4-0.1-0.8-0.3-1.2
			c-0.1-0.2-0.2-0.4-0.2-0.7C-31.4,250-31.5,249.9-31.6,250 M-32.8,248.2c0.1,0.4,0.8,0.7,0.8,0.1c0-0.3-0.3-0.6-0.4-0.8
			C-32.8,247.4-32.7,247.9-32.8,248.2 M-30.2,256c0.3,0,0.1-0.7-0.2-0.4C-30.4,255.8-30.4,256-30.2,256 M-8.5,235.9
			c0.5,1.5,1.1,2.9,1.3,4.5c-1.7-2.6-3.8-4.9-6.5-6.6c-1.3-0.8-2.7-1.7-4-2.6c-1.2-0.9-2.2-1.9-3.3-2.8c-0.1,0-0.1-0.2-0.2-0.1
			c0.8,2.1,2,4,3.3,5.7c1.3,1.7,2.6,3.4,4.2,4.8c1.6,1.4,3.3,2.7,5,4.1c1.6,1.3,2.9,2.8,4,4.5c0.1,0.1,0.1,0.3,0.2,0.3
			c-0.4-2.7,0.1-5.4,0.3-7.9c0.2-2.8-0.5-5.1-1.3-7.2c-1.6-4.1-3.9-7.4-7.4-9.7c0,0,0,0,0,0c1.5,2.3,2.7,5.2,3.3,8.3
			C-9.3,232.8-9,234.3-8.5,235.9 M-100.1,280.2c0.1,0.4,0.3,1.2,0.8,0.8C-99.3,280.5-99.7,279.8-100.1,280.2 M-97.8,282.2
			c-0.2,0.1,0,0.6,0.1,0.7c0.2,0.2,0.6,0.3,0.8,0C-97,282.6-97.5,282-97.8,282.2 M-56.8,276.3c0.2-0.2-0.1-0.6-0.3-0.4
			C-57.1,276.1-57.1,276.3-56.8,276.3 M-97,283.7c0.3,0.3,0.4,1.2,1.1,0.8c0-0.5-0.4-0.8-0.6-1.2C-96.8,283.4-96.9,283.6-97,283.7
			 M-101.1,273.1c0.1-0.1,0.1-0.1,0.1-0.2c-0.1-0.3-0.5-0.6-0.7-0.2C-101.5,272.8-101.5,273-101.1,273.1 M-34.4,245.1
			c0.2,0.1,0.3,0.4,0.6,0.3c0.1-0.1,0.2-0.2,0.1-0.3c-0.3-0.1-0.3-0.4-0.4-0.6c-0.1-0.2-0.5-0.4-0.6-0.4c-0.7-0.1,0,0.9,0.2,1
			C-34.6,245.1-34.5,245.1-34.4,245.1 M-102.1,273.4c0.1-0.1,0.4,0,0.5-0.1C-101.6,272.9-102.1,273-102.1,273.4 M-98.7,272.8
			c0.1-0.1,0.1-0.2,0.1-0.3c-0.1-0.1-0.5-0.3-0.7-0.1c0,0.2,0.1,0.3,0.2,0.4C-99,272.8-98.8,272.9-98.7,272.8 M-57.1,277.1
			c0.3,0.2,0.6-0.2,0.5-0.6C-56.9,276.3-57.2,276.7-57.1,277.1"/>
		<path class="st0" d="M378.7,273.5h-15.5v-12.4c0-0.8-0.8-1.6-1.6-1.6h-6.8c-0.9,0-1.6,0.7-1.6,1.6v12.4h-5.9
			c-0.9,0-1.6,0.7-1.6,1.6c0,7.2-0.4,5.8,7.5,5.8v32.6c0,8.9,5.9,13.4,14.7,13.4c3.2,0,8.3-0.7,11.2-2.2c1-0.5,1.2-0.8,1.2-1.9V319
			c0-0.8-0.4-1.7-1.4-1.7c-1.3,0-4,2.2-8,2.2c-5.7,0-7.7-2.9-7.7-8.3v-30.4h15.5c0.9,0,1.6-0.7,1.6-1.6v-4.2
			C380.4,274.2,379.6,273.5,378.7,273.5 M329.9,252.6c-3.8,0-6.1,2.1-6.1,5.8c0,3.9,2,6,6,6c4,0,6.1-1.9,6.1-5.9
			C335.9,254.7,333.8,252.6,329.9,252.6 M469.4,273.5c-4.6,0-7.2,0.7-11.4,2.7c-1,0.5-1.6,0.7-2.8,0.7h-0.3c0-1.7,0.4-3.5-1.8-3.5
			h-5.5c-0.9,0-1.6,0.7-1.6,1.6v49.4c0,0.8,0.8,1.6,1.6,1.6h6.3c0.9,0,1.5-0.7,1.5-1.6V288c0-5.6,3.8-6.2,8.6-6.2
			c2.5,0,4.9,0.3,7.3,0.7c0.4,0.1,0.9,0.2,1.3,0.2c1.1,0,1.5-0.8,1.5-1.8C474.2,275.6,475.4,273.5,469.4,273.5 M244,272.8h-13.3
			c-0.8,0-1.4,0.6-1.4,1.4v33.5c0,5.5-3.1,8-8.6,8c-7.2,0-9.7-4.9-9.7-11.3v-30.1c0-0.7-0.6-1.4-1.4-1.4h-13.3
			c-0.8,0-1.4,0.6-1.4,1.4v34.1c0,12,7.2,18.7,19.4,18.7c3.7,0,7.4-0.6,10.9-1.9c1.6-0.6,3.3-1.6,5.1-1.6h0.2c0,1-0.2,2.6,1.4,2.6
			H244c0.8,0,1.4-0.6,1.4-1.4v-50.6C245.4,273.4,244.7,272.8,244,272.8 M333.2,273.5h-6.8c-0.9,0-1.6,0.7-1.6,1.6v49.4
			c0,0.8,0.8,1.6,1.6,1.6h6.8c0.9,0,1.6-0.7,1.6-1.6v-49.4C334.9,274.2,334.1,273.5,333.2,273.5 M419.3,312.6c0,2.8-0.4,4-3.1,5.2
			c-2.7,1.3-6,1.7-9,1.7c-5.2,0-9.9-1.6-9.9-7.4c0-6.7,5.3-8.4,11-10.3l11.1-3.8V312.6z M411.4,272.7c-4.4,0-16.5,1.3-19.9,3.8
			c-1.1,0.7-1.1,1.4-1.1,2.6v4.2c0,0.9,0.5,1.5,1.5,1.5c0.9,0,1.3-0.3,1.9-0.7c4.6-2.7,10.8-4,16.1-4c4.7,0,9.3,1,9.3,6.5v2.3
			c0,2.1-1.3,2.6-3.1,3.3c-7.6,2.5-15.9,4.7-22.8,9c-4.2,2.6-6.7,6.5-6.7,11.4c0,9.8,9,14.4,18,14.4c3.2,0,7.6-0.6,10.5-1.9
			c1.7-0.7,3-1.5,5-1.5h0.2c0,1.5,0.1,2.5,1.9,2.5h5.5c0.9,0,1.6-0.7,1.6-1.6v-37.6C429.4,276.1,421.3,272.7,411.4,272.7
			 M305.1,276.4c-4.1-3.6-8.9-4.6-14.3-4.6c-5.2,0-9,0.7-13.7,2.9c-0.9,0.4-1.4,0.6-2.4,0.6h-0.2c0-1,0.2-2.6-1.4-2.6h-12.3
			c-0.8,0-1.4,0.6-1.4,1.4v50.6c0,0.7,0.6,1.4,1.4,1.4h13.3c0.8,0,1.4-0.6,1.4-1.4v-34.1c0-5.1,3.4-7.3,8.4-7.3
			c7.7,0,9.9,5,9.9,11.9v29.6c0,0.7,0.7,1.4,1.4,1.4h13.3c0.8,0,1.4-0.6,1.4-1.4v-33.4C310,285.7,309.6,280.4,305.1,276.4"/>
		<path class="st0" d="M151.9,258.4c0.2,4.7,5.1,8.3,8.5,8.3C159.6,261.8,155.8,258.1,151.9,258.4 M163.8,252.6
			c-3.9,3.6-5,8.2-2.4,14.1C165.1,263.1,167.2,258.3,163.8,252.6 M156,244.7c-1.8,2.6-1.6,6.9,1.3,10.3
			C159.4,252.6,159.5,247.4,156,244.7 M155.1,296.1c2.4-4.3,2.1-12.9-3.5-16.1C148.9,284,150,292.2,155.1,296.1 M147.8,291.3
			c-6.9,3-7.8,8.7-6.5,14.9C147.2,302.6,149.7,297.7,147.8,291.3 M144.1,264.2c1.3,8.5-1.2,17.2-6.8,23.9c0.3-1.8,0.5-3.7,0.4-5.9
			c-0.1-2.6-0.5-5.3-1.2-8.1C140,270.7,142.6,267.4,144.1,264.2 M136.7,294.6c12.3-10.8,15.7-28.8,7.1-43.2
			c-1.3-2.2-2.9-4.3-4.7-6.1c-1.1,1.1-1.9,2.3-2.5,3.3c0.6,0.7,1.2,1.4,1.8,2.1c-0.8-0.2-1.7-0.3-2.6-0.4c0,0.1-0.1,0.1-0.1,0.2
			c-0.1,0.2-0.2,0.4-0.2,0.5c-0.2,0.4-0.5,0.9-0.7,1.3c1.8,0.1,3.9,0.4,5.5,1.2c1.3,2.3,2.3,4.6,3,7c-0.8,3.3-3.4,7.4-7.4,11.4
			c-1.3-4.2-3.1-8.4-5.6-12.6c-0.4,0.6-0.9,1.2-1.4,1.8c2.3,4.1,4.1,8.3,5.3,12.4c-1.6,1.5-3.3,2.9-5.2,4.4c0.3,0.6,0.7,1.2,1,1.8
			c1.7-1.3,3.3-2.6,4.8-3.9c0.5,2.3,0.8,4.5,0.9,6.6c0.1,2.8-0.2,5.2-0.9,7.3C135.4,291.2,136.1,292.9,136.7,294.6 M160.6,281
			c1-4.9-2.1-11.8-7.1-13.1C151.8,272.5,156.2,279.6,160.6,281 M148.8,250.9c1.4,3.7,4.6,4.5,7.7,4.4
			C154.8,251.8,152.1,250.6,148.8,250.9 M170.2,221.7c0,0-4,3.4-10.5,5.8c-6.1,2.3-16,4.3-25.2,10.8c-0.4,0.2-0.7,0.5-1,0.7
			c-1.5,0.9-6,4.2-12.1,2.4c-3.7-12-17.2-23-22.5-28.5c-4.7-5-6.7-9.8-6.7-9.8S74,235.3,71.7,238c-1.5,1.8,5.1,6.4,12.4,9.7
			c8.3,3.7,14,9.1,15.7,10.8c-10.6,5.4-36.4,1.9-47.4-3.6c-0.9-0.4-1.4,0.9-0.4,1.8c5.4,5.3,16.3,14.3,48.7,15
			c15,0.4,33.9,37.1,38.2,47.3c0.5,1.2,2,1.9,1.8,0c-5.7-34.8-21.9-51.8-21.7-52c6-4.1,10.3-9.4,14.3-17.2c0.1-0.2,0.3-0.7,0.6-1.4
			c0.1-0.3,0.3-0.5,0.4-0.8c0.1-0.2,0.2-0.3,0.3-0.5c6.9-11.3,32.4-16,35.5-23.8C170.6,222.4,170.2,221.7,170.2,221.7 M83.2,249.7
			c-1.9,2.8-3.4,5.8-4.4,9c1.5,0.1,2.9,0.2,4.3,0.2c0.9-2.6,2.2-5,3.8-7.3C85.8,251,84.5,250.3,83.2,249.7 M91.7,258.5
			c-0.2-1.3-0.3-2.5-0.3-3.7c0-0.1,0-0.2,0-0.3c-0.7-0.5-1.3-0.9-2.1-1.4c0,0.6,0,1.2,0,1.8c0,1.3,0.2,2.6,0.3,3.9
			C90.4,258.6,91.1,258.5,91.7,258.5 M141.8,307.2c4.7,3.5,15.9,1.2,19.7-4.9C156.8,298.4,146.6,302,141.8,307.2 M147.8,242.8
			c0.1,3.5,2.6,5.5,5.3,6.6C152.6,245.8,150.6,243.8,147.8,242.8 M156.2,296.3c8.7-1.7,14.2-8.3,13.4-14.9
			C160.5,283.5,157.2,290.3,156.2,296.3 M161.7,281c6.9-3.9,9.7-9.3,7.8-16.3C162.5,268.5,160.8,274.9,161.7,281 M95.2,293.1
			c3.7,0,7.8-0.7,12.2-2.1c4.2,3.8,8.6,6.4,12.8,7.6c-2.5,0.6-5,0.9-7.6,0.9c-7.1,0-13.9-2.4-19.3-6.5
			C93.9,293.1,94.6,293.1,95.2,293.1 M88.8,273.2c-2.3,2.9-4,5.7-4.8,8.3c-1.4-3-2.2-6.1-2.5-9.2c-1.5-0.2-2.9-0.5-4.2-0.8
			c0.3,5.1,1.9,10.2,4.7,15c6.3,10.6,18.1,17.1,30.7,17.1c4.9,0,9.7-1,14.2-2.9c-0.7-1.2-1.4-2.3-2.2-3.5c-0.1,0-0.1,0.1-0.2,0.1
			c-4.6-0.2-9.8-2.7-14.8-7c2.6-0.9,5.2-2,7.9-3.3c-0.4-0.6-0.9-1.1-1.3-1.6c-2.8,1.3-5.6,2.5-8.3,3.4c-3.4-3.2-6.6-7.2-9.3-11.8
			c-0.6-1.1-1.2-2.1-1.8-3.2c-0.8,0-1.6-0.1-2.4-0.1c0.7,1.5,1.5,2.9,2.3,4.4c2.6,4.4,5.7,8.2,8.9,11.4c-3.8,1.1-7.4,1.7-10.5,1.7
			c-1.5,0-3.3-0.1-4.9-0.6c-1.8-1.8-3.5-3.8-4.8-6.1c0.1-3.1,2.3-7,5.8-11C90.4,273.4,89.6,273.3,88.8,273.2 M86.3,307.4
			c1.7-2.8,1.1-8.8-2.9-11.4C81.1,299.1,82.4,304.2,86.3,307.4 M98.6,315c1.1-4.4-2.9-11.7-7.8-12.8C89.4,307.1,93.8,313.3,98.6,315
			 M124.7,225.5c-2.9,0.5-4.7,4.2-4,8.2c0.7,4,3.7,6.8,6.7,6.3c2.9-0.5,4.7-4.2,4-8.2C130.7,227.8,127.7,225,124.7,225.5
			 M71.5,284.4c-0.6,2.9,0.2,5.6,3.3,8C75.2,289.5,74.7,286.4,71.5,284.4 M109.6,205.2c0,0,0.1,1.5,2,6c2.4,5.5,5.7,10.9,6.3,16.4
			c0.1,0.5,0.7,0.6,0.8,0c0.9-4.8-2.8-13.5-4.7-19.6c0.3-0.1,0.5-0.3,0.8-0.4c3.9-2,5.7-2.8,8.2-4.4c0,0-0.6,2.3-0.1,6
			c0.8,5.9,0.8,7.3,0.7,12.7c0,0.5,0.5,0.8,0.7,0.3c1.5-4.5,1-9.7,1.3-15.9c0.2-0.1,0.5-0.1,0.8-0.2c3-0.8,4.8-1.3,7.1-1.9
			c0,0-0.6,1.1-1.4,4.6c-1.2,5.8-1.3,9.1-3,14c-0.2,0.5,0.1,0.9,0.4,0.5c2.5-3.7,3.8-10.8,6-16.5c2.9-0.2,7.5-0.8,8.8-0.8
			c0,0-0.8,0.8-2.4,4c-2.9,5.7-6.3,12.5-9.3,16.2c-0.3,0.4-0.2,0.9,0.2,0.6c4.4-3.3,9.1-12.9,12.4-17.9c3.1-4.6,5.2-6.9,5.2-6.9
			s-9.1,2.5-14.6,3.6c1.9-4.8,3.9-7.7,3.9-7.7s-7,3.9-13.3,6.9c-0.3,0.1-0.6,0.3-0.9,0.5c0.3-5.5,1.6-9.3,1.6-9.3
			s-5.9,5.2-12.6,10.4c-0.3,0.2-0.6,0.5-0.9,0.7c0,0,0,0,0,0c-1.7-5.7-1.3-10.1-1.3-10.1s-5.8,7.2-11.7,14.4
			c0.3,0.4,0.7,0.7,1.1,1.1C104.9,209.8,107.6,207.3,109.6,205.2 M78.3,298.4c1.7-2.5,2.6-5.7,0.1-8.7
			C76.4,292.2,76.1,295,78.3,298.4 M77.7,298.9c-1.6-4.2-5.2-6.6-8.4-6.4C69.8,296.7,74.4,299.3,77.7,298.9 M116.8,326.9
			c7.3,0,15.1-8.2,14.5-13.9C124.3,314.2,115.9,320.9,116.8,326.9 M130.8,312c-4.8-4.3-10.2-6.5-16.4-2.3
			C119,314.6,124.6,315.1,130.8,312 M85.8,308.2c-3.8-5.2-8.5-6.7-13.7-5.3C75.4,308.7,80.7,309.6,85.8,308.2 M79.8,314.1
			c5.2,5.2,11.3,5.6,18.3,1.9C93.2,312.1,86.7,310.2,79.8,314.1 M102.4,307c0,6.3,7.3,11,12.3,11.3C114,312,107.3,306.9,102.4,307
			 M94.3,322.8c5.4,4.1,14,2.9,20-3.4C108.5,317.1,100.9,316.2,94.3,322.8"/>
	</g>
</g>
</svg>
